%
M48
M72
T01C0.0130
T02C0.0197
T03C0.0400
T04C0.0472
T05C0.1300
%
T01
X2225Y7350
X7975Y7350
X7975Y8975
X8625Y10238
X8625Y10600
X8625Y10963
X10425Y10350
X10825Y10350
X13850Y8350
X13975Y7350
X16475Y9975
X19975Y7350
X23225Y10100
X24250Y11475
X22725Y12475
X16475Y15225
X14613Y14425
X14600Y13775
X15725Y13775
X11988Y13775
X11975Y14125
X11775Y14425
X10600Y13750
X10275Y13750
X9950Y13750
X9950Y13400
X10275Y13400
X10600Y13400
X10600Y13050
X10275Y13050
X9950Y13050
X9950Y12700
X10275Y12700
X10600Y12700
X11988Y13400
X8675Y14175
X17225Y18725
X25975Y7350
T02
X23225Y5725
X22725Y5725
X17225Y5725
X16725Y5725
X11225Y5725
X10725Y5725
X5225Y5725
X4725Y5725
X6713Y13725
X7225Y13725
T03
X7225Y16225
X6225Y16225
X5225Y16225
X4225Y16225
X3225Y16225
X11225Y16225
X12225Y16225
X13225Y16225
X14225Y16225
X15225Y16225
X19225Y16225
X20225Y16225
X21225Y16225
X25225Y16225
X26225Y16225
X27225Y16225
T04
X28225Y14225
X28225Y13225
X24725Y2225
X23725Y2225
X22725Y2225
X21725Y2225
X20725Y2225
X19725Y2225
X18725Y2225
X17725Y2225
X16725Y2225
X12725Y2225
X11725Y2225
X10725Y2225
X9725Y2225
X8725Y2225
X7725Y2225
X6725Y2225
X5725Y2225
X4725Y2225
X1225Y13225
X1225Y14225
T05
X1225Y1225
X1225Y18725
X28225Y18725
X28225Y1225
M30
