G75*
%MOIN*%
%OFA0B0*%
%FSLAX24Y24*%
%IPPOS*%
%LPD*%
%AMOC8*
5,1,8,0,0,1.08239X$1,22.5*
%
%ADD10C,0.1380*%
%ADD11R,0.0710X0.0592*%
%ADD12R,0.0710X0.0790*%
%ADD13R,0.0340X0.0880*%
%ADD14R,0.0790X0.0710*%
%ADD15C,0.0789*%
%ADD16R,0.1222X0.0671*%
%ADD17R,0.0671X0.0592*%
%ADD18R,0.0552X0.0552*%
%ADD19R,0.0867X0.0671*%
%ADD20R,0.0470X0.0352*%
%ADD21C,0.0680*%
%ADD22R,0.0472X0.0106*%
%ADD23R,0.1024X0.1488*%
%ADD24R,0.0592X0.0710*%
%ADD25R,0.0505X0.0493*%
%ADD26R,0.2440X0.0870*%
%ADD27R,0.0434X0.0356*%
%ADD28R,0.0356X0.0434*%
%ADD29R,0.0592X0.0671*%
D10*
X001225Y001225D03*
X001225Y018725D03*
X028225Y018725D03*
X028225Y001225D03*
D11*
X026725Y007331D03*
X026725Y008119D03*
X020725Y008119D03*
X020725Y007331D03*
X014725Y007331D03*
X014725Y008119D03*
X010688Y010831D03*
X010688Y011619D03*
X012625Y013556D03*
X012625Y014344D03*
X008725Y008119D03*
X008725Y007331D03*
D12*
X023665Y004475D03*
X024785Y004475D03*
D13*
X024725Y006515D03*
X024225Y006515D03*
X023725Y006515D03*
X023225Y006515D03*
X022725Y006515D03*
X022225Y006515D03*
X019225Y006515D03*
X018725Y006515D03*
X018225Y006515D03*
X017725Y006515D03*
X017225Y006515D03*
X016725Y006515D03*
X016225Y006515D03*
X013225Y006515D03*
X012725Y006515D03*
X012225Y006515D03*
X011725Y006515D03*
X011225Y006515D03*
X010725Y006515D03*
X010225Y006515D03*
X007225Y006515D03*
X006725Y006515D03*
X006225Y006515D03*
X005725Y006515D03*
X005225Y006515D03*
X004725Y006515D03*
X004225Y006515D03*
X004225Y008935D03*
X004725Y008935D03*
X005225Y008935D03*
X005725Y008935D03*
X006225Y008935D03*
X006725Y008935D03*
X007225Y008935D03*
X010225Y008935D03*
X010725Y008935D03*
X011225Y008935D03*
X011725Y008935D03*
X012225Y008935D03*
X012725Y008935D03*
X013225Y008935D03*
X016225Y008935D03*
X016725Y008935D03*
X017225Y008935D03*
X017725Y008935D03*
X018225Y008935D03*
X018725Y008935D03*
X019225Y008935D03*
X022225Y008935D03*
X022725Y008935D03*
X023225Y008935D03*
X023725Y008935D03*
X024225Y008935D03*
X024725Y008935D03*
X025225Y008935D03*
X025225Y006515D03*
D14*
X020725Y006285D03*
X020725Y005165D03*
X014725Y005165D03*
X014725Y006285D03*
X008725Y006285D03*
X008725Y005165D03*
D15*
X008725Y002579D02*
X008725Y001871D01*
X007725Y001871D02*
X007725Y002579D01*
X006725Y002579D02*
X006725Y001871D01*
X005725Y001871D02*
X005725Y002579D01*
X004725Y002579D02*
X004725Y001871D01*
X009725Y001871D02*
X009725Y002579D01*
X010725Y002579D02*
X010725Y001871D01*
X011725Y001871D02*
X011725Y002579D01*
X012725Y002579D02*
X012725Y001871D01*
X016725Y001871D02*
X016725Y002579D01*
X017725Y002579D02*
X017725Y001871D01*
X018725Y001871D02*
X018725Y002579D01*
X019725Y002579D02*
X019725Y001871D01*
X020725Y001871D02*
X020725Y002579D01*
X021725Y002579D02*
X021725Y001871D01*
X022725Y001871D02*
X022725Y002579D01*
X023725Y002579D02*
X023725Y001871D01*
X024725Y001871D02*
X024725Y002579D01*
X027871Y013225D02*
X028579Y013225D01*
X028579Y014225D02*
X027871Y014225D01*
X001579Y014225D02*
X000871Y014225D01*
X000871Y013225D02*
X001579Y013225D01*
D16*
X008113Y013116D03*
X008113Y011934D03*
X009500Y011716D03*
X009500Y010534D03*
D17*
X002225Y004599D03*
X002225Y003851D03*
D18*
X002225Y005812D03*
X002225Y006638D03*
D19*
X006875Y011984D03*
X006875Y013166D03*
D20*
X022717Y011849D03*
X022717Y011475D03*
X022717Y011101D03*
X023737Y011101D03*
X023737Y011849D03*
D21*
X025225Y015925D02*
X025225Y016525D01*
X026225Y016525D02*
X026225Y015925D01*
X027225Y015925D02*
X027225Y016525D01*
X021225Y016525D02*
X021225Y015925D01*
X020225Y015925D02*
X020225Y016525D01*
X019225Y016525D02*
X019225Y015925D01*
X015225Y015925D02*
X015225Y016525D01*
X014225Y016525D02*
X014225Y015925D01*
X013225Y015925D02*
X013225Y016525D01*
X012225Y016525D02*
X012225Y015925D01*
X011225Y015925D02*
X011225Y016525D01*
X007225Y016525D02*
X007225Y015925D01*
X006225Y015925D02*
X006225Y016525D01*
X005225Y016525D02*
X005225Y015925D01*
X004225Y015925D02*
X004225Y016525D01*
X003225Y016525D02*
X003225Y015925D01*
D22*
X009133Y014121D03*
X009133Y013865D03*
X009133Y013609D03*
X009133Y013353D03*
X009133Y013097D03*
X009133Y012841D03*
X009133Y012585D03*
X009133Y012329D03*
X011417Y012329D03*
X011417Y012585D03*
X011417Y012841D03*
X011417Y013097D03*
X011417Y013353D03*
X011417Y013609D03*
X011417Y013865D03*
X011417Y014121D03*
D23*
X010275Y013225D03*
D24*
X014231Y013150D03*
X015019Y013150D03*
X022831Y013225D03*
X023619Y013225D03*
D25*
X013463Y013643D03*
X013463Y014332D03*
X007925Y014018D03*
X007925Y014707D03*
D26*
X013325Y012225D03*
X013325Y010525D03*
D27*
X014138Y013844D03*
X014138Y014356D03*
X015088Y014293D03*
X015088Y013782D03*
D28*
X015206Y014838D03*
X014694Y014838D03*
D29*
X022851Y016225D03*
X023599Y016225D03*
M02*
