G75*
%MOIN*%
%OFA0B0*%
%FSLAX24Y24*%
%IPPOS*%
%LPD*%
%AMOC8*
5,1,8,0,0,1.08239X$1,22.5*
%
%ADD10R,0.0630X0.0512*%
%ADD11R,0.0630X0.0710*%
%ADD12R,0.0260X0.0800*%
%ADD13R,0.0710X0.0630*%
%ADD14C,0.0709*%
%ADD15R,0.1142X0.0591*%
%ADD16R,0.0591X0.0512*%
%ADD17R,0.0472X0.0472*%
%ADD18R,0.0787X0.0591*%
%ADD19R,0.0390X0.0272*%
%ADD20C,0.0600*%
%ADD21R,0.0472X0.0106*%
%ADD22R,0.1181X0.2165*%
%ADD23C,0.0270*%
%ADD24R,0.0512X0.0630*%
%ADD25R,0.0425X0.0413*%
%ADD26R,0.2360X0.0790*%
%ADD27R,0.0354X0.0276*%
%ADD28R,0.0276X0.0354*%
%ADD29R,0.0512X0.0591*%
%ADD30C,0.0120*%
%ADD31C,0.0100*%
%ADD32C,0.0400*%
%ADD33C,0.0160*%
%ADD34C,0.0337*%
D10*
X008725Y007331D03*
X008725Y008119D03*
X010688Y010831D03*
X010688Y011619D03*
X012625Y013556D03*
X012625Y014344D03*
X014725Y008119D03*
X014725Y007331D03*
X020725Y007331D03*
X020725Y008119D03*
X026725Y008119D03*
X026725Y007331D03*
D11*
X024785Y004475D03*
X023665Y004475D03*
D12*
X023725Y006515D03*
X023225Y006515D03*
X022725Y006515D03*
X022225Y006515D03*
X024225Y006515D03*
X024725Y006515D03*
X025225Y006515D03*
X025225Y008935D03*
X024725Y008935D03*
X024225Y008935D03*
X023725Y008935D03*
X023225Y008935D03*
X022725Y008935D03*
X022225Y008935D03*
X019225Y008935D03*
X018725Y008935D03*
X018225Y008935D03*
X017725Y008935D03*
X017225Y008935D03*
X016725Y008935D03*
X016225Y008935D03*
X013225Y008935D03*
X012725Y008935D03*
X012225Y008935D03*
X011725Y008935D03*
X011225Y008935D03*
X010725Y008935D03*
X010225Y008935D03*
X007225Y008935D03*
X006725Y008935D03*
X006225Y008935D03*
X005725Y008935D03*
X005225Y008935D03*
X004725Y008935D03*
X004225Y008935D03*
X004225Y006515D03*
X004725Y006515D03*
X005225Y006515D03*
X005725Y006515D03*
X006225Y006515D03*
X006725Y006515D03*
X007225Y006515D03*
X010225Y006515D03*
X010725Y006515D03*
X011225Y006515D03*
X011725Y006515D03*
X012225Y006515D03*
X012725Y006515D03*
X013225Y006515D03*
X016225Y006515D03*
X016725Y006515D03*
X017225Y006515D03*
X017725Y006515D03*
X018225Y006515D03*
X018725Y006515D03*
X019225Y006515D03*
D13*
X020725Y006285D03*
X020725Y005165D03*
X014725Y005165D03*
X014725Y006285D03*
X008725Y006285D03*
X008725Y005165D03*
D14*
X008725Y002579D02*
X008725Y001871D01*
X007725Y001871D02*
X007725Y002579D01*
X006725Y002579D02*
X006725Y001871D01*
X005725Y001871D02*
X005725Y002579D01*
X004725Y002579D02*
X004725Y001871D01*
X009725Y001871D02*
X009725Y002579D01*
X010725Y002579D02*
X010725Y001871D01*
X011725Y001871D02*
X011725Y002579D01*
X012725Y002579D02*
X012725Y001871D01*
X016725Y001871D02*
X016725Y002579D01*
X017725Y002579D02*
X017725Y001871D01*
X018725Y001871D02*
X018725Y002579D01*
X019725Y002579D02*
X019725Y001871D01*
X020725Y001871D02*
X020725Y002579D01*
X021725Y002579D02*
X021725Y001871D01*
X022725Y001871D02*
X022725Y002579D01*
X023725Y002579D02*
X023725Y001871D01*
X024725Y001871D02*
X024725Y002579D01*
X027871Y013225D02*
X028579Y013225D01*
X028579Y014225D02*
X027871Y014225D01*
X001579Y014225D02*
X000871Y014225D01*
X000871Y013225D02*
X001579Y013225D01*
D15*
X008113Y013116D03*
X008113Y011934D03*
X009500Y011716D03*
X009500Y010534D03*
D16*
X002225Y004599D03*
X002225Y003851D03*
D17*
X002225Y005812D03*
X002225Y006638D03*
D18*
X006875Y011984D03*
X006875Y013166D03*
D19*
X022717Y011849D03*
X022717Y011475D03*
X022717Y011101D03*
X023737Y011101D03*
X023737Y011849D03*
D20*
X025225Y015925D02*
X025225Y016525D01*
X026225Y016525D02*
X026225Y015925D01*
X027225Y015925D02*
X027225Y016525D01*
X021225Y016525D02*
X021225Y015925D01*
X020225Y015925D02*
X020225Y016525D01*
X019225Y016525D02*
X019225Y015925D01*
X015225Y015925D02*
X015225Y016525D01*
X014225Y016525D02*
X014225Y015925D01*
X013225Y015925D02*
X013225Y016525D01*
X012225Y016525D02*
X012225Y015925D01*
X011225Y015925D02*
X011225Y016525D01*
X007225Y016525D02*
X007225Y015925D01*
X006225Y015925D02*
X006225Y016525D01*
X005225Y016525D02*
X005225Y015925D01*
X004225Y015925D02*
X004225Y016525D01*
X003225Y016525D02*
X003225Y015925D01*
D21*
X009133Y014121D03*
X009133Y013865D03*
X009133Y013609D03*
X009133Y013353D03*
X009133Y013097D03*
X009133Y012841D03*
X009133Y012585D03*
X009133Y012329D03*
X011417Y012329D03*
X011417Y012585D03*
X011417Y012841D03*
X011417Y013097D03*
X011417Y013353D03*
X011417Y013609D03*
X011417Y013865D03*
X011417Y014121D03*
D22*
X010275Y013225D03*
D23*
X010275Y013050D03*
X009950Y013050D03*
X009950Y012700D03*
X010275Y012700D03*
X010600Y012700D03*
X010600Y013050D03*
X010600Y013400D03*
X010275Y013400D03*
X009950Y013400D03*
X009950Y013750D03*
X010275Y013750D03*
X010600Y013750D03*
X011775Y014425D03*
X011975Y014125D03*
X011988Y013775D03*
X011988Y013400D03*
X014600Y013775D03*
X014613Y014425D03*
X015725Y013775D03*
X016475Y015225D03*
X017225Y018725D03*
X008675Y014175D03*
X008625Y010963D03*
X008625Y010600D03*
X008625Y010238D03*
X010425Y010350D03*
X010825Y010350D03*
X007975Y008975D03*
X007975Y007350D03*
X002225Y007350D03*
X013850Y008350D03*
X013975Y007350D03*
X016475Y009975D03*
X019975Y007350D03*
X023225Y010100D03*
X024250Y011475D03*
X022725Y012475D03*
X025975Y007350D03*
D24*
X023619Y013225D03*
X022831Y013225D03*
X015019Y013150D03*
X014231Y013150D03*
D25*
X013463Y013643D03*
X013463Y014332D03*
X007925Y014018D03*
X007925Y014707D03*
D26*
X013325Y012225D03*
X013325Y010525D03*
D27*
X014138Y013844D03*
X014138Y014356D03*
X015088Y014293D03*
X015088Y013782D03*
D28*
X015206Y014838D03*
X014694Y014838D03*
D29*
X022851Y016225D03*
X023599Y016225D03*
D30*
X023434Y012475D02*
X022725Y012475D01*
X023434Y012475D02*
X023454Y012473D01*
X023472Y012467D01*
X023490Y012458D01*
X023505Y012446D01*
X023504Y012446D02*
X023725Y012225D01*
X023725Y011850D01*
X014688Y014838D02*
X014138Y014838D01*
X014138Y014350D01*
X013475Y014325D02*
X013475Y014838D01*
X013250Y012325D02*
X012225Y012325D01*
X013250Y012325D02*
X013350Y012225D01*
D31*
X013325Y012225D02*
X014863Y012225D01*
X015025Y012388D01*
X015025Y013100D01*
X014238Y013050D02*
X013738Y013050D01*
X013525Y012838D01*
X011413Y012838D01*
X011425Y012588D02*
X011975Y012588D01*
X012225Y012325D01*
X011413Y012325D01*
X011025Y012341D02*
X009525Y012341D01*
X009525Y012439D02*
X011025Y012439D01*
X011025Y012538D02*
X009525Y012538D01*
X009525Y012636D02*
X011025Y012636D01*
X011025Y012735D02*
X009525Y012735D01*
X009525Y012833D02*
X011025Y012833D01*
X011025Y012932D02*
X009525Y012932D01*
X009525Y013030D02*
X011025Y013030D01*
X011025Y013129D02*
X009525Y013129D01*
X009525Y013227D02*
X011025Y013227D01*
X011025Y013326D02*
X009525Y013326D01*
X009525Y013424D02*
X011025Y013424D01*
X011025Y013523D02*
X009525Y013523D01*
X009525Y013621D02*
X011025Y013621D01*
X011025Y013720D02*
X009525Y013720D01*
X009525Y013818D02*
X011025Y013818D01*
X011025Y013917D02*
X009525Y013917D01*
X009525Y014015D02*
X011025Y014015D01*
X011025Y014114D02*
X009525Y014114D01*
X009525Y014212D02*
X011025Y014212D01*
X011025Y014311D02*
X009525Y014311D01*
X009525Y014409D02*
X011025Y014409D01*
X011025Y014508D02*
X008300Y014508D01*
X008300Y014475D02*
X008300Y014950D01*
X014375Y014950D01*
X014375Y014750D01*
X011025Y014750D01*
X011025Y011350D01*
X005725Y011350D01*
X005725Y012588D01*
X008788Y012588D01*
X008788Y012175D01*
X009525Y012175D01*
X009525Y014475D01*
X008300Y014475D01*
X008300Y014606D02*
X011025Y014606D01*
X011025Y014705D02*
X008300Y014705D01*
X008338Y014713D02*
X007925Y014713D01*
X008300Y014803D02*
X014375Y014803D01*
X014375Y014902D02*
X008300Y014902D01*
X008338Y014713D02*
X008338Y014000D01*
X008475Y013863D01*
X009138Y013863D01*
X009138Y013613D02*
X008050Y013613D01*
X007913Y013750D01*
X007913Y014013D01*
X007550Y014015D02*
X006438Y014015D01*
X006438Y014025D02*
X007550Y014025D01*
X007550Y013400D01*
X008788Y013400D01*
X008788Y012838D01*
X006438Y012838D01*
X006438Y014025D01*
X006438Y013917D02*
X007550Y013917D01*
X007550Y013818D02*
X006438Y013818D01*
X006438Y013720D02*
X007550Y013720D01*
X007550Y013621D02*
X006438Y013621D01*
X006438Y013523D02*
X007550Y013523D01*
X007550Y013424D02*
X006438Y013424D01*
X006438Y013326D02*
X008788Y013326D01*
X008725Y013350D02*
X009163Y013350D01*
X009163Y013100D02*
X008725Y013100D01*
X008788Y013129D02*
X006438Y013129D01*
X006438Y013227D02*
X008788Y013227D01*
X008788Y013030D02*
X006438Y013030D01*
X006438Y012932D02*
X008788Y012932D01*
X008725Y012838D02*
X009163Y012838D01*
X009138Y012588D02*
X008700Y012588D01*
X008788Y012538D02*
X005725Y012538D01*
X005725Y012439D02*
X008788Y012439D01*
X008788Y012341D02*
X005725Y012341D01*
X005725Y012242D02*
X008788Y012242D01*
X008700Y012325D02*
X009138Y012325D01*
X009525Y012242D02*
X011025Y012242D01*
X011025Y012144D02*
X005725Y012144D01*
X005725Y012045D02*
X011025Y012045D01*
X011025Y011947D02*
X005725Y011947D01*
X005725Y011848D02*
X011025Y011848D01*
X011025Y011750D02*
X005725Y011750D01*
X005725Y011651D02*
X011025Y011651D01*
X011025Y011553D02*
X005725Y011553D01*
X005725Y011454D02*
X011025Y011454D01*
X011025Y011356D02*
X005725Y011356D01*
X008388Y011113D02*
X008388Y010100D01*
X014525Y010100D01*
X014525Y010925D01*
X011025Y010925D01*
X011025Y011113D01*
X008388Y011113D01*
X008388Y011060D02*
X011025Y011060D01*
X011025Y010962D02*
X008388Y010962D01*
X008388Y010863D02*
X014525Y010863D01*
X014525Y010765D02*
X008388Y010765D01*
X008388Y010666D02*
X014525Y010666D01*
X014525Y010568D02*
X008388Y010568D01*
X008388Y010469D02*
X014525Y010469D01*
X014525Y010371D02*
X008388Y010371D01*
X008388Y010272D02*
X014525Y010272D01*
X014525Y010174D02*
X008388Y010174D01*
X007975Y008975D02*
X007975Y008600D01*
X007725Y008350D01*
X006850Y008350D01*
X006725Y008475D01*
X006725Y008850D01*
X006725Y008475D02*
X006600Y008350D01*
X005350Y008350D01*
X005225Y008475D01*
X005225Y008975D01*
X007225Y007225D02*
X007350Y007350D01*
X007975Y007350D01*
X008725Y007350D01*
X007225Y007225D02*
X007225Y006475D01*
X011225Y008475D02*
X011350Y008350D01*
X012600Y008350D01*
X012725Y008475D01*
X012850Y008350D01*
X013850Y008350D01*
X012725Y008475D02*
X012725Y008975D01*
X011225Y008975D02*
X011225Y008475D01*
X013225Y007225D02*
X013350Y007350D01*
X013975Y007350D01*
X014725Y007350D01*
X013225Y007225D02*
X013225Y006475D01*
X017225Y008475D02*
X017350Y008350D01*
X018600Y008350D01*
X018725Y008475D01*
X018725Y008975D01*
X017225Y008475D02*
X017225Y018725D01*
X021225Y016225D02*
X022850Y016225D01*
X023600Y016225D02*
X023600Y015475D01*
X023850Y015225D01*
X024475Y015225D01*
X024725Y014975D01*
X024725Y008975D01*
X023725Y008975D02*
X023725Y011100D01*
X023850Y011100D01*
X024250Y011475D02*
X022725Y011475D01*
X022725Y012475D02*
X022725Y013225D01*
X023225Y010100D02*
X023225Y008975D01*
X025225Y007225D02*
X025350Y007350D01*
X025975Y007350D01*
X026725Y007350D01*
X025225Y007225D02*
X025225Y006475D01*
X020725Y007350D02*
X019975Y007350D01*
X019350Y007350D01*
X019225Y007225D01*
X019225Y006475D01*
X016475Y009975D02*
X016475Y015225D01*
X015200Y014825D02*
X015163Y014788D01*
X015163Y014375D01*
X015088Y014300D01*
X014738Y014300D01*
X014613Y014425D01*
X014600Y013775D02*
X014138Y013775D01*
X013463Y013638D02*
X013463Y013225D01*
X013338Y013100D01*
X011413Y013100D01*
X011413Y013350D02*
X011938Y013350D01*
X011988Y013400D01*
X012013Y013425D01*
X012625Y013425D01*
X012625Y013550D01*
X011988Y013775D02*
X011825Y013613D01*
X011413Y013613D01*
X011413Y014125D02*
X011975Y014125D01*
X011775Y014425D02*
X012625Y014425D01*
X012625Y014350D01*
X015088Y013775D02*
X015725Y013775D01*
X009138Y014125D02*
X008875Y014125D01*
X008825Y014175D01*
X008675Y014175D01*
X002225Y007350D02*
X002225Y006600D01*
X002225Y005850D02*
X002225Y004475D01*
D32*
X015725Y013775D02*
X015725Y015738D01*
X015225Y016238D01*
D33*
X001723Y000479D02*
X001666Y000455D01*
X027784Y000455D01*
X027727Y000479D01*
X027479Y000727D01*
X027345Y001050D01*
X027345Y001400D01*
X027479Y001723D01*
X027727Y001971D01*
X028050Y002105D01*
X028400Y002105D01*
X028723Y001971D01*
X028971Y001723D01*
X028995Y001666D01*
X028995Y012942D01*
X028859Y012806D01*
X028678Y012731D01*
X027772Y012731D01*
X027591Y012806D01*
X027452Y012945D01*
X027376Y013127D01*
X027376Y013323D01*
X027452Y013505D01*
X027591Y013644D01*
X027740Y013706D01*
X027666Y013730D01*
X027591Y013768D01*
X027523Y013817D01*
X027463Y013877D01*
X027414Y013945D01*
X027375Y014020D01*
X027349Y014100D01*
X027336Y014183D01*
X027336Y014187D01*
X028187Y014187D01*
X028187Y014263D01*
X027336Y014263D01*
X027336Y014267D01*
X027349Y014350D01*
X027375Y014430D01*
X027414Y014505D01*
X027463Y014573D01*
X027523Y014633D01*
X027591Y014682D01*
X027666Y014720D01*
X027746Y014746D01*
X027829Y014759D01*
X028187Y014759D01*
X028187Y014263D01*
X028263Y014263D01*
X028263Y014759D01*
X028621Y014759D01*
X028704Y014746D01*
X028784Y014720D01*
X028859Y014682D01*
X028927Y014633D01*
X028987Y014573D01*
X028995Y014562D01*
X028995Y018284D01*
X028971Y018227D01*
X028723Y017979D01*
X028400Y017845D01*
X028050Y017845D01*
X027727Y017979D01*
X027479Y018227D01*
X027345Y018550D01*
X027345Y018900D01*
X027479Y019223D01*
X027727Y019471D01*
X027784Y019495D01*
X001666Y019495D01*
X001723Y019471D01*
X001971Y019223D01*
X002105Y018900D01*
X002105Y018550D01*
X001971Y018227D01*
X001723Y017979D01*
X001400Y017845D01*
X001050Y017845D01*
X000727Y017979D01*
X000479Y018227D01*
X000455Y018284D01*
X000455Y014508D01*
X000591Y014644D01*
X000772Y014719D01*
X001678Y014719D01*
X001859Y014644D01*
X001998Y014505D01*
X002074Y014323D01*
X002074Y014300D01*
X007450Y014300D01*
X007450Y015213D01*
X015385Y015213D01*
X015385Y015515D01*
X015313Y015485D01*
X015137Y015485D01*
X014976Y015552D01*
X014852Y015676D01*
X014785Y015837D01*
X014785Y016613D01*
X014852Y016774D01*
X014976Y016898D01*
X015137Y016965D01*
X015313Y016965D01*
X015474Y016898D01*
X015598Y016774D01*
X015665Y016613D01*
X015665Y016278D01*
X015918Y016026D01*
X016013Y015930D01*
X016065Y015805D01*
X016065Y013707D01*
X016013Y013582D01*
X015918Y013487D01*
X015793Y013435D01*
X015657Y013435D01*
X015582Y013466D01*
X015588Y011950D01*
X014800Y011950D01*
X014800Y009838D01*
X006150Y009838D01*
X006150Y014299D01*
X002074Y014299D01*
X002074Y014127D01*
X001998Y013945D01*
X001859Y013806D01*
X001710Y013744D01*
X001784Y013720D01*
X001859Y013682D01*
X001927Y013633D01*
X001987Y013573D01*
X002036Y013505D01*
X002075Y013430D01*
X002101Y013350D01*
X002114Y013267D01*
X002114Y013263D01*
X001263Y013263D01*
X001263Y013187D01*
X002114Y013187D01*
X002114Y013183D01*
X002101Y013100D01*
X002075Y013020D01*
X002036Y012945D01*
X001987Y012877D01*
X001927Y012817D01*
X001859Y012768D01*
X001784Y012730D01*
X001704Y012704D01*
X001621Y012691D01*
X001263Y012691D01*
X001263Y013187D01*
X001187Y013187D01*
X001187Y012691D01*
X000829Y012691D01*
X000746Y012704D01*
X000666Y012730D01*
X000591Y012768D01*
X000523Y012817D01*
X000463Y012877D01*
X000455Y012888D01*
X000455Y001666D01*
X000479Y001723D01*
X000727Y001971D01*
X001050Y002105D01*
X001400Y002105D01*
X001723Y001971D01*
X001971Y001723D01*
X002105Y001400D01*
X002105Y001050D01*
X001971Y000727D01*
X001723Y000479D01*
X001787Y000542D02*
X027663Y000542D01*
X027505Y000701D02*
X001945Y000701D01*
X002026Y000859D02*
X027424Y000859D01*
X027358Y001018D02*
X002092Y001018D01*
X002105Y001176D02*
X027345Y001176D01*
X027345Y001335D02*
X002105Y001335D01*
X002066Y001493D02*
X004347Y001493D01*
X004317Y001523D02*
X004377Y001463D01*
X004445Y001414D01*
X004520Y001375D01*
X004600Y001349D01*
X004683Y001336D01*
X004687Y001336D01*
X004687Y002187D01*
X004763Y002187D01*
X004763Y001336D01*
X004767Y001336D01*
X004850Y001349D01*
X004930Y001375D01*
X005005Y001414D01*
X005073Y001463D01*
X005133Y001523D01*
X005182Y001591D01*
X005220Y001666D01*
X005244Y001740D01*
X005306Y001591D01*
X005445Y001452D01*
X005627Y001376D01*
X005823Y001376D01*
X006005Y001452D01*
X006144Y001591D01*
X006219Y001772D01*
X006219Y002678D01*
X006144Y002859D01*
X006005Y002998D01*
X005823Y003074D01*
X005627Y003074D01*
X005445Y002998D01*
X005306Y002859D01*
X005244Y002710D01*
X005220Y002784D01*
X005182Y002859D01*
X005133Y002927D01*
X005073Y002987D01*
X005005Y003036D01*
X004930Y003075D01*
X004850Y003101D01*
X004767Y003114D01*
X004763Y003114D01*
X004763Y002263D01*
X004687Y002263D01*
X004687Y002187D01*
X004191Y002187D01*
X004191Y001829D01*
X004204Y001746D01*
X004230Y001666D01*
X004268Y001591D01*
X004317Y001523D01*
X004237Y001652D02*
X002001Y001652D01*
X001885Y001810D02*
X004194Y001810D01*
X004191Y001969D02*
X001726Y001969D01*
X000724Y001969D02*
X000455Y001969D01*
X000455Y002127D02*
X004191Y002127D01*
X004191Y002263D02*
X004687Y002263D01*
X004687Y003114D01*
X004683Y003114D01*
X004600Y003101D01*
X004520Y003075D01*
X004445Y003036D01*
X004377Y002987D01*
X004317Y002927D01*
X004268Y002859D01*
X004230Y002784D01*
X004204Y002704D01*
X004191Y002621D01*
X004191Y002263D01*
X004191Y002286D02*
X000455Y002286D01*
X000455Y002444D02*
X004191Y002444D01*
X004191Y002603D02*
X000455Y002603D01*
X000455Y002761D02*
X004222Y002761D01*
X004312Y002920D02*
X000455Y002920D01*
X000455Y003078D02*
X004531Y003078D01*
X004687Y003078D02*
X004763Y003078D01*
X004919Y003078D02*
X009436Y003078D01*
X009380Y003134D02*
X009495Y003019D01*
X009445Y002998D01*
X009306Y002859D01*
X009231Y002678D01*
X009231Y001772D01*
X009306Y001591D01*
X009445Y001452D01*
X009627Y001376D01*
X009823Y001376D01*
X010005Y001452D01*
X010144Y001591D01*
X010219Y001772D01*
X010219Y002678D01*
X010144Y002859D01*
X010005Y002998D01*
X009989Y003005D01*
X010461Y003005D01*
X010445Y002998D01*
X010306Y002859D01*
X010231Y002678D01*
X010231Y001772D01*
X010306Y001591D01*
X010445Y001452D01*
X010627Y001376D01*
X010823Y001376D01*
X011005Y001452D01*
X011144Y001591D01*
X011219Y001772D01*
X011219Y002678D01*
X011144Y002859D01*
X011005Y002998D01*
X010989Y003005D01*
X011461Y003005D01*
X011445Y002998D01*
X011306Y002859D01*
X011231Y002678D01*
X011231Y001772D01*
X011306Y001591D01*
X011445Y001452D01*
X011627Y001376D01*
X011823Y001376D01*
X012005Y001452D01*
X012144Y001591D01*
X012219Y001772D01*
X012219Y002678D01*
X012144Y002859D01*
X012005Y002998D01*
X011989Y003005D01*
X012461Y003005D01*
X012445Y002998D01*
X012306Y002859D01*
X012231Y002678D01*
X012231Y001772D01*
X012306Y001591D01*
X012445Y001452D01*
X012627Y001376D01*
X012823Y001376D01*
X013005Y001452D01*
X013144Y001591D01*
X013219Y001772D01*
X013219Y002678D01*
X013144Y002859D01*
X013005Y002998D01*
X012989Y003005D01*
X016402Y003005D01*
X016377Y002987D01*
X016317Y002927D01*
X016268Y002859D01*
X016230Y002784D01*
X016204Y002704D01*
X016191Y002621D01*
X016191Y002263D01*
X016687Y002263D01*
X016687Y002187D01*
X016763Y002187D01*
X016763Y001336D01*
X016767Y001336D01*
X016850Y001349D01*
X016930Y001375D01*
X017005Y001414D01*
X017073Y001463D01*
X017133Y001523D01*
X017182Y001591D01*
X017220Y001666D01*
X017244Y001740D01*
X017306Y001591D01*
X017445Y001452D01*
X017627Y001376D01*
X017823Y001376D01*
X018005Y001452D01*
X018144Y001591D01*
X018219Y001772D01*
X018219Y002678D01*
X018144Y002859D01*
X018005Y002998D01*
X017945Y003023D01*
X017945Y003066D01*
X017816Y003195D01*
X017756Y003255D01*
X018384Y003255D01*
X018505Y003134D01*
X018505Y003023D01*
X018445Y002998D01*
X018306Y002859D01*
X018231Y002678D01*
X018231Y001772D01*
X018306Y001591D01*
X018445Y001452D01*
X018627Y001376D01*
X018823Y001376D01*
X019005Y001452D01*
X019144Y001591D01*
X019219Y001772D01*
X019219Y002678D01*
X019144Y002859D01*
X019005Y002998D01*
X018945Y003023D01*
X018945Y003316D01*
X018816Y003445D01*
X018566Y003695D01*
X009820Y003695D01*
X009820Y005816D01*
X009691Y005945D01*
X009316Y006320D01*
X009220Y006320D01*
X009220Y006658D01*
X009138Y006740D01*
X008312Y006740D01*
X008230Y006658D01*
X008230Y006320D01*
X008134Y006320D01*
X008005Y006191D01*
X007884Y006070D01*
X007495Y006070D01*
X007495Y006973D01*
X007415Y007053D01*
X007415Y007146D01*
X007429Y007160D01*
X007776Y007160D01*
X007819Y007117D01*
X007920Y007075D01*
X008030Y007075D01*
X008131Y007117D01*
X008174Y007160D01*
X008270Y007160D01*
X008270Y007017D01*
X008352Y006935D01*
X009098Y006935D01*
X009180Y007017D01*
X009180Y007645D01*
X009123Y007703D01*
X009150Y007719D01*
X009184Y007752D01*
X009208Y007793D01*
X009220Y007839D01*
X009220Y008071D01*
X008773Y008071D01*
X008773Y008167D01*
X008677Y008167D01*
X008677Y008555D01*
X008386Y008555D01*
X008341Y008542D01*
X008300Y008519D01*
X008266Y008485D01*
X008242Y008444D01*
X008230Y008398D01*
X008230Y008167D01*
X008677Y008167D01*
X008677Y008071D01*
X008230Y008071D01*
X008230Y007839D01*
X008242Y007793D01*
X008266Y007752D01*
X008300Y007719D01*
X008327Y007703D01*
X008270Y007645D01*
X008270Y007540D01*
X008174Y007540D01*
X008131Y007583D01*
X008030Y007625D01*
X007920Y007625D01*
X007819Y007583D01*
X007776Y007540D01*
X007271Y007540D01*
X007160Y007429D01*
X007035Y007304D01*
X007035Y007053D01*
X006975Y006993D01*
X006913Y007055D01*
X006537Y007055D01*
X006475Y006993D01*
X006413Y007055D01*
X006037Y007055D01*
X005975Y006993D01*
X005913Y007055D01*
X005537Y007055D01*
X005475Y006993D01*
X005413Y007055D01*
X005037Y007055D01*
X004975Y006993D01*
X004913Y007055D01*
X004537Y007055D01*
X004475Y006993D01*
X004413Y007055D01*
X004037Y007055D01*
X003955Y006973D01*
X003955Y006057D01*
X004037Y005975D01*
X004413Y005975D01*
X004475Y006037D01*
X004505Y006007D01*
X004505Y005941D01*
X004464Y005900D01*
X004417Y005786D01*
X004417Y005664D01*
X004464Y005550D01*
X004550Y005464D01*
X004664Y005417D01*
X004786Y005417D01*
X004900Y005464D01*
X004975Y005539D01*
X005050Y005464D01*
X005164Y005417D01*
X005286Y005417D01*
X005400Y005464D01*
X005486Y005550D01*
X005533Y005664D01*
X005533Y005786D01*
X005486Y005900D01*
X005445Y005941D01*
X005445Y006007D01*
X005475Y006037D01*
X005505Y006007D01*
X005505Y005884D01*
X005880Y005509D01*
X006009Y005380D01*
X007884Y005380D01*
X008005Y005259D01*
X008134Y005130D01*
X008230Y005130D01*
X008230Y004792D01*
X008312Y004710D01*
X009130Y004710D01*
X009130Y003384D01*
X009380Y003134D01*
X009277Y003237D02*
X000455Y003237D01*
X000455Y003395D02*
X009130Y003395D01*
X009130Y003554D02*
X002695Y003554D01*
X002700Y003571D02*
X002700Y003803D01*
X002273Y003803D01*
X002273Y003899D01*
X002700Y003899D01*
X002700Y004131D01*
X002688Y004176D01*
X002664Y004217D01*
X002631Y004251D01*
X002628Y004253D01*
X002660Y004285D01*
X002660Y004913D01*
X002578Y004995D01*
X002415Y004995D01*
X002415Y005435D01*
X002519Y005435D01*
X002601Y005517D01*
X002601Y006106D01*
X002519Y006188D01*
X001931Y006188D01*
X001849Y006106D01*
X001849Y005517D01*
X001931Y005435D01*
X002035Y005435D01*
X002035Y004995D01*
X001872Y004995D01*
X001790Y004913D01*
X001790Y004285D01*
X001822Y004253D01*
X001819Y004251D01*
X001786Y004217D01*
X001762Y004176D01*
X001750Y004131D01*
X001750Y003899D01*
X002177Y003899D01*
X002177Y003803D01*
X001750Y003803D01*
X001750Y003571D01*
X001762Y003526D01*
X001786Y003485D01*
X001819Y003451D01*
X001860Y003427D01*
X001906Y003415D01*
X002177Y003415D01*
X002177Y003803D01*
X002273Y003803D01*
X002273Y003415D01*
X002544Y003415D01*
X002590Y003427D01*
X002631Y003451D01*
X002664Y003485D01*
X002688Y003526D01*
X002700Y003571D01*
X002700Y003712D02*
X009130Y003712D01*
X009130Y003871D02*
X002273Y003871D01*
X002177Y003871D02*
X000455Y003871D01*
X000455Y004029D02*
X001750Y004029D01*
X001768Y004188D02*
X000455Y004188D01*
X000455Y004346D02*
X001790Y004346D01*
X001790Y004505D02*
X000455Y004505D01*
X000455Y004663D02*
X001790Y004663D01*
X001790Y004822D02*
X000455Y004822D01*
X000455Y004980D02*
X001857Y004980D01*
X002035Y005139D02*
X000455Y005139D01*
X000455Y005297D02*
X002035Y005297D01*
X001911Y005456D02*
X000455Y005456D01*
X000455Y005614D02*
X001849Y005614D01*
X001849Y005773D02*
X000455Y005773D01*
X000455Y005931D02*
X001849Y005931D01*
X001849Y006090D02*
X000455Y006090D01*
X000455Y006248D02*
X003955Y006248D01*
X003955Y006090D02*
X002601Y006090D01*
X002601Y005931D02*
X004495Y005931D01*
X004417Y005773D02*
X002601Y005773D01*
X002601Y005614D02*
X004437Y005614D01*
X004570Y005456D02*
X002539Y005456D01*
X002415Y005297D02*
X007967Y005297D01*
X008125Y005139D02*
X002415Y005139D01*
X002593Y004980D02*
X008230Y004980D01*
X008230Y004822D02*
X002660Y004822D01*
X002660Y004663D02*
X009130Y004663D01*
X009130Y004505D02*
X002660Y004505D01*
X002660Y004346D02*
X009130Y004346D01*
X009130Y004188D02*
X002682Y004188D01*
X002700Y004029D02*
X009130Y004029D01*
X009600Y003600D02*
X009725Y003475D01*
X018475Y003475D01*
X018725Y003225D01*
X018725Y002225D01*
X019219Y002286D02*
X019231Y002286D01*
X019219Y002444D02*
X019231Y002444D01*
X019219Y002603D02*
X019231Y002603D01*
X019231Y002678D02*
X019306Y002859D01*
X019445Y002998D01*
X019505Y003023D01*
X019505Y003191D01*
X019634Y003320D01*
X019759Y003445D01*
X019880Y003445D01*
X019880Y004005D01*
X015509Y004005D01*
X015380Y004134D01*
X015130Y004384D01*
X015130Y004710D01*
X014312Y004710D01*
X014230Y004792D01*
X014230Y005130D01*
X014134Y005130D01*
X014005Y005259D01*
X013884Y005380D01*
X012009Y005380D01*
X011880Y005509D01*
X011505Y005884D01*
X011505Y006007D01*
X011475Y006037D01*
X011445Y006007D01*
X011445Y005941D01*
X011486Y005900D01*
X011533Y005786D01*
X011533Y005664D01*
X011486Y005550D01*
X011400Y005464D01*
X011286Y005417D01*
X011164Y005417D01*
X011050Y005464D01*
X010975Y005539D01*
X010900Y005464D01*
X010786Y005417D01*
X010664Y005417D01*
X010550Y005464D01*
X010464Y005550D01*
X010417Y005664D01*
X010417Y005786D01*
X010464Y005900D01*
X010505Y005941D01*
X010505Y006007D01*
X010475Y006037D01*
X010413Y005975D01*
X010037Y005975D01*
X009955Y006057D01*
X009955Y006973D01*
X010037Y007055D01*
X010413Y007055D01*
X010475Y006993D01*
X010537Y007055D01*
X010913Y007055D01*
X010975Y006993D01*
X011037Y007055D01*
X011413Y007055D01*
X011475Y006993D01*
X011537Y007055D01*
X011913Y007055D01*
X011975Y006993D01*
X012037Y007055D01*
X012413Y007055D01*
X012475Y006993D01*
X012537Y007055D01*
X012913Y007055D01*
X012975Y006993D01*
X013035Y007053D01*
X013035Y007304D01*
X013160Y007429D01*
X013271Y007540D01*
X013776Y007540D01*
X013819Y007583D01*
X013920Y007625D01*
X014030Y007625D01*
X014131Y007583D01*
X014174Y007540D01*
X014270Y007540D01*
X014270Y007645D01*
X014327Y007703D01*
X014300Y007719D01*
X014266Y007752D01*
X014242Y007793D01*
X014230Y007839D01*
X014230Y008071D01*
X014677Y008071D01*
X014677Y008167D01*
X014677Y008555D01*
X014386Y008555D01*
X014341Y008542D01*
X014300Y008519D01*
X014266Y008485D01*
X014242Y008444D01*
X014230Y008398D01*
X014230Y008167D01*
X014677Y008167D01*
X014773Y008167D01*
X014773Y008555D01*
X015064Y008555D01*
X015109Y008542D01*
X015150Y008519D01*
X015184Y008485D01*
X015208Y008444D01*
X015220Y008398D01*
X015220Y008167D01*
X014773Y008167D01*
X014773Y008071D01*
X015220Y008071D01*
X015220Y007839D01*
X015208Y007793D01*
X015184Y007752D01*
X015150Y007719D01*
X015123Y007703D01*
X015180Y007645D01*
X015180Y007017D01*
X015098Y006935D01*
X014352Y006935D01*
X014270Y007017D01*
X014270Y007160D01*
X014174Y007160D01*
X014131Y007117D01*
X014030Y007075D01*
X013920Y007075D01*
X013819Y007117D01*
X013776Y007160D01*
X013429Y007160D01*
X013415Y007146D01*
X013415Y007053D01*
X013495Y006973D01*
X013495Y006070D01*
X013884Y006070D01*
X014005Y006191D01*
X014134Y006320D01*
X014230Y006320D01*
X014230Y006658D01*
X014312Y006740D01*
X015138Y006740D01*
X015220Y006658D01*
X015220Y006320D01*
X015316Y006320D01*
X015691Y005945D01*
X015820Y005816D01*
X015820Y004695D01*
X020191Y004695D01*
X020441Y004445D01*
X020570Y004316D01*
X020570Y003445D01*
X020691Y003445D01*
X020816Y003320D01*
X020945Y003191D01*
X020945Y003023D01*
X021005Y002998D01*
X021144Y002859D01*
X021219Y002678D01*
X021219Y001772D01*
X021144Y001591D01*
X021005Y001452D01*
X020823Y001376D01*
X020627Y001376D01*
X020445Y001452D01*
X020306Y001591D01*
X020231Y001772D01*
X020231Y002678D01*
X020306Y002859D01*
X020445Y002998D01*
X020461Y003005D01*
X020384Y003005D01*
X020255Y003134D01*
X020225Y003164D01*
X020195Y003134D01*
X020066Y003005D01*
X019989Y003005D01*
X020005Y002998D01*
X020144Y002859D01*
X020219Y002678D01*
X020219Y001772D01*
X020144Y001591D01*
X020005Y001452D01*
X019823Y001376D01*
X019627Y001376D01*
X019445Y001452D01*
X019306Y001591D01*
X019231Y001772D01*
X019231Y002678D01*
X019265Y002761D02*
X019185Y002761D01*
X019084Y002920D02*
X019366Y002920D01*
X019505Y003078D02*
X018945Y003078D01*
X018945Y003237D02*
X019550Y003237D01*
X019725Y003100D02*
X019725Y002225D01*
X019231Y002127D02*
X019219Y002127D01*
X019219Y001969D02*
X019231Y001969D01*
X019219Y001810D02*
X019231Y001810D01*
X019281Y001652D02*
X019169Y001652D01*
X019046Y001493D02*
X019404Y001493D01*
X020046Y001493D02*
X020404Y001493D01*
X020281Y001652D02*
X020169Y001652D01*
X020219Y001810D02*
X020231Y001810D01*
X020219Y001969D02*
X020231Y001969D01*
X020219Y002127D02*
X020231Y002127D01*
X020219Y002286D02*
X020231Y002286D01*
X020219Y002444D02*
X020231Y002444D01*
X020219Y002603D02*
X020231Y002603D01*
X020265Y002761D02*
X020185Y002761D01*
X020084Y002920D02*
X020366Y002920D01*
X020311Y003078D02*
X020139Y003078D01*
X019975Y003225D02*
X019850Y003225D01*
X019725Y003100D01*
X019975Y003225D02*
X020100Y003350D01*
X020100Y004100D01*
X019975Y004225D01*
X015600Y004225D01*
X015350Y004475D01*
X015350Y005225D01*
X015225Y005350D01*
X014225Y005350D01*
X013975Y005600D01*
X012100Y005600D01*
X011725Y005975D01*
X011725Y006475D01*
X011225Y006475D02*
X011225Y005725D01*
X011513Y005614D02*
X011775Y005614D01*
X011933Y005456D02*
X011380Y005456D01*
X011070Y005456D02*
X010880Y005456D01*
X010570Y005456D02*
X009820Y005456D01*
X009820Y005614D02*
X010437Y005614D01*
X010417Y005773D02*
X009820Y005773D01*
X009705Y005931D02*
X010495Y005931D01*
X010725Y005725D02*
X010725Y006475D01*
X010523Y007041D02*
X010427Y007041D01*
X010023Y007041D02*
X009180Y007041D01*
X009180Y007199D02*
X013035Y007199D01*
X013023Y007041D02*
X012927Y007041D01*
X013089Y007358D02*
X009180Y007358D01*
X009180Y007516D02*
X013247Y007516D01*
X013427Y007041D02*
X014270Y007041D01*
X014296Y006724D02*
X013495Y006724D01*
X013495Y006882D02*
X015955Y006882D01*
X015955Y006973D02*
X015955Y006057D01*
X016037Y005975D01*
X016413Y005975D01*
X016475Y006037D01*
X016505Y006007D01*
X016505Y005941D01*
X016464Y005900D01*
X016417Y005786D01*
X016417Y005664D01*
X016464Y005550D01*
X016550Y005464D01*
X016664Y005417D01*
X016786Y005417D01*
X016900Y005464D01*
X016975Y005539D01*
X017050Y005464D01*
X017164Y005417D01*
X017286Y005417D01*
X017400Y005464D01*
X017486Y005550D01*
X017533Y005664D01*
X017533Y005786D01*
X017486Y005900D01*
X017445Y005941D01*
X017445Y006007D01*
X017475Y006037D01*
X017505Y006007D01*
X017505Y005884D01*
X017880Y005509D01*
X018009Y005380D01*
X019884Y005380D01*
X020005Y005259D01*
X020134Y005130D01*
X020230Y005130D01*
X020230Y004792D01*
X020312Y004710D01*
X021138Y004710D01*
X021220Y004792D01*
X021220Y005130D01*
X021316Y005130D01*
X021566Y005380D01*
X021880Y005380D01*
X021880Y003445D01*
X021759Y003445D01*
X021634Y003320D01*
X021505Y003191D01*
X021505Y003023D01*
X021445Y002998D01*
X021306Y002859D01*
X021231Y002678D01*
X021231Y001772D01*
X021306Y001591D01*
X021445Y001452D01*
X021627Y001376D01*
X021823Y001376D01*
X022005Y001452D01*
X022144Y001591D01*
X022219Y001772D01*
X022219Y002678D01*
X022144Y002859D01*
X022005Y002998D01*
X021989Y003005D01*
X022066Y003005D01*
X022195Y003134D01*
X022225Y003164D01*
X022384Y003005D01*
X022461Y003005D01*
X022445Y002998D01*
X022306Y002859D01*
X022231Y002678D01*
X022231Y001772D01*
X022306Y001591D01*
X022445Y001452D01*
X022627Y001376D01*
X022823Y001376D01*
X023005Y001452D01*
X023144Y001591D01*
X023219Y001772D01*
X023219Y002678D01*
X023144Y002859D01*
X023005Y002998D01*
X022945Y003023D01*
X022945Y003191D01*
X022816Y003320D01*
X022691Y003445D01*
X022570Y003445D01*
X022570Y005455D01*
X022664Y005417D01*
X022786Y005417D01*
X022900Y005464D01*
X022975Y005539D01*
X023050Y005464D01*
X023164Y005417D01*
X023286Y005417D01*
X023400Y005464D01*
X023486Y005550D01*
X023533Y005664D01*
X023533Y005786D01*
X023486Y005900D01*
X023445Y005941D01*
X023445Y006007D01*
X023475Y006037D01*
X023505Y006007D01*
X023505Y005884D01*
X023880Y005509D01*
X023880Y005191D01*
X023759Y005070D01*
X023659Y004970D01*
X023292Y004970D01*
X023210Y004888D01*
X023210Y004062D01*
X023292Y003980D01*
X023659Y003980D01*
X023880Y003759D01*
X023880Y003445D01*
X023759Y003445D01*
X023634Y003320D01*
X023505Y003191D01*
X023505Y003023D01*
X023445Y002998D01*
X023306Y002859D01*
X023231Y002678D01*
X023231Y001772D01*
X023306Y001591D01*
X023445Y001452D01*
X023627Y001376D01*
X023823Y001376D01*
X024005Y001452D01*
X024144Y001591D01*
X024219Y001772D01*
X024219Y002678D01*
X024144Y002859D01*
X024005Y002998D01*
X023989Y003005D01*
X024066Y003005D01*
X024195Y003134D01*
X024225Y003164D01*
X024255Y003134D01*
X024384Y003005D01*
X024461Y003005D01*
X024445Y002998D01*
X024306Y002859D01*
X024231Y002678D01*
X024231Y001772D01*
X024306Y001591D01*
X024445Y001452D01*
X024627Y001376D01*
X024823Y001376D01*
X025005Y001452D01*
X025144Y001591D01*
X025219Y001772D01*
X025219Y002678D01*
X025144Y002859D01*
X025005Y002998D01*
X024945Y003023D01*
X024945Y003191D01*
X024816Y003320D01*
X024691Y003445D01*
X024570Y003445D01*
X024570Y003759D01*
X024791Y003980D01*
X025158Y003980D01*
X025240Y004062D01*
X025240Y004888D01*
X025158Y004970D01*
X024791Y004970D01*
X024570Y005191D01*
X024570Y005816D01*
X024445Y005941D01*
X024445Y006007D01*
X024475Y006037D01*
X024537Y005975D01*
X024913Y005975D01*
X024975Y006037D01*
X025037Y005975D01*
X025413Y005975D01*
X025495Y006057D01*
X025495Y006973D01*
X025415Y007053D01*
X025415Y007146D01*
X025429Y007160D01*
X025776Y007160D01*
X025819Y007117D01*
X025920Y007075D01*
X026030Y007075D01*
X026131Y007117D01*
X026174Y007160D01*
X026270Y007160D01*
X026270Y007017D01*
X026352Y006935D01*
X027098Y006935D01*
X027180Y007017D01*
X027180Y007645D01*
X027123Y007703D01*
X027150Y007719D01*
X027184Y007752D01*
X027208Y007793D01*
X027220Y007839D01*
X027220Y008071D01*
X026773Y008071D01*
X026773Y008167D01*
X026677Y008167D01*
X026677Y008555D01*
X026386Y008555D01*
X026341Y008542D01*
X026300Y008519D01*
X026266Y008485D01*
X026242Y008444D01*
X026230Y008398D01*
X026230Y008167D01*
X026677Y008167D01*
X026677Y008071D01*
X026230Y008071D01*
X026230Y007839D01*
X026242Y007793D01*
X026266Y007752D01*
X026300Y007719D01*
X026327Y007703D01*
X026270Y007645D01*
X026270Y007540D01*
X026174Y007540D01*
X026131Y007583D01*
X026030Y007625D01*
X025920Y007625D01*
X025819Y007583D01*
X025776Y007540D01*
X025271Y007540D01*
X025160Y007429D01*
X025035Y007304D01*
X025035Y007053D01*
X024975Y006993D01*
X024913Y007055D01*
X024537Y007055D01*
X024475Y006993D01*
X024413Y007055D01*
X024037Y007055D01*
X023975Y006993D01*
X023913Y007055D01*
X023537Y007055D01*
X023475Y006993D01*
X023413Y007055D01*
X023037Y007055D01*
X022975Y006993D01*
X022913Y007055D01*
X022537Y007055D01*
X022475Y006993D01*
X022413Y007055D01*
X022037Y007055D01*
X021955Y006973D01*
X021955Y006070D01*
X021566Y006070D01*
X021316Y006320D01*
X021220Y006320D01*
X021220Y006658D01*
X021138Y006740D01*
X020312Y006740D01*
X020230Y006658D01*
X020230Y006320D01*
X020134Y006320D01*
X020005Y006191D01*
X019884Y006070D01*
X019495Y006070D01*
X019495Y006973D01*
X019415Y007053D01*
X019415Y007146D01*
X019429Y007160D01*
X019776Y007160D01*
X019819Y007117D01*
X019920Y007075D01*
X020030Y007075D01*
X020131Y007117D01*
X020174Y007160D01*
X020270Y007160D01*
X020270Y007017D01*
X020352Y006935D01*
X021098Y006935D01*
X021180Y007017D01*
X021180Y007645D01*
X021123Y007703D01*
X021150Y007719D01*
X021184Y007752D01*
X021208Y007793D01*
X021220Y007839D01*
X021220Y008071D01*
X020773Y008071D01*
X020773Y008167D01*
X020677Y008167D01*
X020677Y008555D01*
X020386Y008555D01*
X020341Y008542D01*
X020300Y008519D01*
X020266Y008485D01*
X020242Y008444D01*
X020230Y008398D01*
X020230Y008167D01*
X020677Y008167D01*
X020677Y008071D01*
X020230Y008071D01*
X020230Y007839D01*
X020242Y007793D01*
X020266Y007752D01*
X020300Y007719D01*
X020327Y007703D01*
X020270Y007645D01*
X020270Y007540D01*
X020174Y007540D01*
X020131Y007583D01*
X020030Y007625D01*
X019920Y007625D01*
X019819Y007583D01*
X019776Y007540D01*
X019271Y007540D01*
X019160Y007429D01*
X019035Y007304D01*
X019035Y007053D01*
X018975Y006993D01*
X018913Y007055D01*
X018537Y007055D01*
X018475Y006993D01*
X018413Y007055D01*
X018037Y007055D01*
X017975Y006993D01*
X017913Y007055D01*
X017537Y007055D01*
X017475Y006993D01*
X017413Y007055D01*
X017037Y007055D01*
X016975Y006993D01*
X016913Y007055D01*
X016537Y007055D01*
X016475Y006993D01*
X016413Y007055D01*
X016037Y007055D01*
X015955Y006973D01*
X016023Y007041D02*
X015180Y007041D01*
X015180Y007199D02*
X019035Y007199D01*
X019023Y007041D02*
X018927Y007041D01*
X019089Y007358D02*
X015180Y007358D01*
X015180Y007516D02*
X019247Y007516D01*
X019427Y007041D02*
X020270Y007041D01*
X020296Y006724D02*
X019495Y006724D01*
X019495Y006882D02*
X021955Y006882D01*
X021955Y006724D02*
X021154Y006724D01*
X021220Y006565D02*
X021955Y006565D01*
X021955Y006407D02*
X021220Y006407D01*
X021388Y006248D02*
X021955Y006248D01*
X021955Y006090D02*
X021547Y006090D01*
X021475Y005850D02*
X022100Y005850D01*
X022350Y005600D01*
X022350Y003350D01*
X022475Y003225D01*
X022600Y003225D01*
X022725Y003100D01*
X022725Y002225D01*
X023219Y002286D02*
X023231Y002286D01*
X023219Y002444D02*
X023231Y002444D01*
X023219Y002603D02*
X023231Y002603D01*
X023265Y002761D02*
X023185Y002761D01*
X023084Y002920D02*
X023366Y002920D01*
X023505Y003078D02*
X022945Y003078D01*
X022900Y003237D02*
X023550Y003237D01*
X023725Y003100D02*
X023725Y002225D01*
X024219Y002286D02*
X024231Y002286D01*
X024219Y002444D02*
X024231Y002444D01*
X024219Y002603D02*
X024231Y002603D01*
X024265Y002761D02*
X024185Y002761D01*
X024084Y002920D02*
X024366Y002920D01*
X024311Y003078D02*
X024139Y003078D01*
X023975Y003225D02*
X023850Y003225D01*
X023725Y003100D01*
X023975Y003225D02*
X024100Y003350D01*
X024100Y003850D01*
X023850Y004100D01*
X023850Y004850D01*
X024100Y005100D01*
X024100Y005600D01*
X023725Y005975D01*
X023725Y006475D01*
X023225Y006475D02*
X023225Y005725D01*
X023513Y005614D02*
X023775Y005614D01*
X023880Y005456D02*
X023380Y005456D01*
X023070Y005456D02*
X022880Y005456D01*
X022725Y005725D02*
X022725Y006475D01*
X022523Y007041D02*
X022427Y007041D01*
X022927Y007041D02*
X023023Y007041D01*
X023427Y007041D02*
X023523Y007041D01*
X023927Y007041D02*
X024023Y007041D01*
X024427Y007041D02*
X024523Y007041D01*
X024927Y007041D02*
X025023Y007041D01*
X025035Y007199D02*
X021180Y007199D01*
X021180Y007041D02*
X022023Y007041D01*
X021180Y007358D02*
X025089Y007358D01*
X025247Y007516D02*
X021180Y007516D01*
X021151Y007675D02*
X026299Y007675D01*
X026232Y007833D02*
X021218Y007833D01*
X021220Y007992D02*
X026230Y007992D01*
X026230Y008309D02*
X021220Y008309D01*
X021220Y008398D02*
X021220Y008167D01*
X020773Y008167D01*
X020773Y008555D01*
X021064Y008555D01*
X021109Y008542D01*
X021150Y008519D01*
X021184Y008485D01*
X021208Y008444D01*
X021220Y008398D01*
X021194Y008467D02*
X021927Y008467D01*
X021927Y008466D02*
X021951Y008424D01*
X021984Y008391D01*
X022026Y008367D01*
X022071Y008355D01*
X022225Y008355D01*
X022379Y008355D01*
X022424Y008367D01*
X022466Y008391D01*
X022475Y008400D01*
X022484Y008391D01*
X022526Y008367D01*
X022571Y008355D01*
X022725Y008355D01*
X022879Y008355D01*
X022924Y008367D01*
X022966Y008391D01*
X022999Y008424D01*
X023002Y008430D01*
X023037Y008395D01*
X023413Y008395D01*
X023475Y008457D01*
X023537Y008395D01*
X023913Y008395D01*
X023975Y008457D01*
X024037Y008395D01*
X024413Y008395D01*
X024475Y008457D01*
X024537Y008395D01*
X024913Y008395D01*
X024975Y008457D01*
X025037Y008395D01*
X025413Y008395D01*
X025495Y008477D01*
X025495Y009393D01*
X025413Y009475D01*
X025037Y009475D01*
X024975Y009413D01*
X024915Y009473D01*
X024915Y015054D01*
X024804Y015165D01*
X024554Y015415D01*
X023929Y015415D01*
X023790Y015554D01*
X023790Y015790D01*
X023913Y015790D01*
X023995Y015872D01*
X023995Y016578D01*
X023913Y016660D01*
X023285Y016660D01*
X023225Y016600D01*
X023165Y016660D01*
X022537Y016660D01*
X022455Y016578D01*
X022455Y016415D01*
X021665Y016415D01*
X021665Y016613D01*
X021598Y016774D01*
X021474Y016898D01*
X021313Y016965D01*
X021137Y016965D01*
X020976Y016898D01*
X020852Y016774D01*
X020785Y016613D01*
X020785Y015837D01*
X020852Y015676D01*
X020976Y015552D01*
X021137Y015485D01*
X021313Y015485D01*
X021474Y015552D01*
X021598Y015676D01*
X021665Y015837D01*
X021665Y016035D01*
X022455Y016035D01*
X022455Y015872D01*
X022537Y015790D01*
X023165Y015790D01*
X023225Y015850D01*
X023285Y015790D01*
X023410Y015790D01*
X023410Y015396D01*
X023660Y015146D01*
X023771Y015035D01*
X024396Y015035D01*
X024535Y014896D01*
X024535Y009473D01*
X024475Y009413D01*
X024413Y009475D01*
X024037Y009475D01*
X023975Y009413D01*
X023915Y009473D01*
X023915Y010825D01*
X023990Y010825D01*
X024072Y010907D01*
X024072Y011264D01*
X024094Y011242D01*
X024195Y011200D01*
X024305Y011200D01*
X024406Y011242D01*
X024483Y011319D01*
X024525Y011420D01*
X024525Y011530D01*
X024483Y011631D01*
X024406Y011708D01*
X024305Y011750D01*
X024195Y011750D01*
X024094Y011708D01*
X024072Y011686D01*
X024072Y012043D01*
X023990Y012125D01*
X023925Y012125D01*
X023925Y012308D01*
X023704Y012529D01*
X023650Y012583D01*
X023604Y012629D01*
X023587Y012646D01*
X023564Y012646D01*
X023533Y012659D01*
X023516Y012675D01*
X022915Y012675D01*
X022915Y012770D01*
X023145Y012770D01*
X023203Y012827D01*
X023219Y012800D01*
X023252Y012766D01*
X023293Y012742D01*
X023339Y012730D01*
X023571Y012730D01*
X023571Y013177D01*
X023667Y013177D01*
X023667Y013273D01*
X024055Y013273D01*
X024055Y013564D01*
X024042Y013609D01*
X024019Y013650D01*
X023985Y013684D01*
X023944Y013708D01*
X023898Y013720D01*
X023667Y013720D01*
X023667Y013273D01*
X023571Y013273D01*
X023571Y013720D01*
X023339Y013720D01*
X023293Y013708D01*
X023252Y013684D01*
X023219Y013650D01*
X023203Y013623D01*
X023145Y013680D01*
X022517Y013680D01*
X022435Y013598D01*
X022435Y012852D01*
X022517Y012770D01*
X022535Y012770D01*
X022535Y012674D01*
X022492Y012631D01*
X022450Y012530D01*
X022450Y012420D01*
X022492Y012319D01*
X022569Y012242D01*
X022670Y012200D01*
X022780Y012200D01*
X022881Y012242D01*
X022914Y012275D01*
X023392Y012275D01*
X023525Y012142D01*
X023525Y012125D01*
X023484Y012125D01*
X023402Y012043D01*
X023402Y011665D01*
X023052Y011665D01*
X023052Y012043D01*
X022970Y012125D01*
X022464Y012125D01*
X022382Y012043D01*
X022382Y011351D01*
X022378Y011347D01*
X022355Y011306D01*
X022342Y011261D01*
X022342Y011101D01*
X022342Y010941D01*
X022355Y010896D01*
X022378Y010855D01*
X022412Y010821D01*
X022453Y010797D01*
X022499Y010785D01*
X022717Y010785D01*
X022717Y011101D01*
X022717Y011101D01*
X022342Y011101D01*
X022717Y011101D01*
X022717Y011101D01*
X022717Y010785D01*
X022936Y010785D01*
X022981Y010797D01*
X023023Y010821D01*
X023056Y010855D01*
X023080Y010896D01*
X023092Y010941D01*
X023092Y011101D01*
X023092Y011261D01*
X023085Y011285D01*
X023402Y011285D01*
X023402Y010907D01*
X023484Y010825D01*
X023535Y010825D01*
X023535Y009473D01*
X023475Y009413D01*
X023415Y009473D01*
X023415Y009901D01*
X023458Y009944D01*
X023500Y010045D01*
X023500Y010155D01*
X023458Y010256D01*
X023381Y010333D01*
X023280Y010375D01*
X023170Y010375D01*
X023069Y010333D01*
X022992Y010256D01*
X022950Y010155D01*
X022950Y010045D01*
X022992Y009944D01*
X023035Y009901D01*
X023035Y009473D01*
X023002Y009440D01*
X022999Y009446D01*
X022966Y009479D01*
X022924Y009503D01*
X022879Y009515D01*
X022725Y009515D01*
X022725Y008935D01*
X022725Y008935D01*
X022725Y008355D01*
X022725Y008935D01*
X022725Y008935D01*
X022725Y009515D01*
X022571Y009515D01*
X022526Y009503D01*
X022484Y009479D01*
X022475Y009470D01*
X022466Y009479D01*
X022424Y009503D01*
X022379Y009515D01*
X022225Y009515D01*
X022225Y008935D01*
X022225Y008935D01*
X022535Y008935D01*
X022725Y008935D01*
X022725Y008935D01*
X022225Y008935D01*
X022225Y008935D01*
X022225Y008355D01*
X022225Y008935D01*
X022225Y008935D01*
X022225Y008935D01*
X021915Y008935D01*
X021915Y009359D01*
X021927Y009404D01*
X021951Y009446D01*
X021984Y009479D01*
X022026Y009503D01*
X022071Y009515D01*
X022225Y009515D01*
X022225Y008935D01*
X021915Y008935D01*
X021915Y008511D01*
X021927Y008466D01*
X021915Y008626D02*
X019495Y008626D01*
X019495Y008477D02*
X019413Y008395D01*
X019037Y008395D01*
X018975Y008457D01*
X018915Y008397D01*
X018915Y008396D01*
X018804Y008285D01*
X018679Y008160D01*
X017271Y008160D01*
X017160Y008271D01*
X017035Y008396D01*
X017035Y008397D01*
X017002Y008430D01*
X016999Y008424D01*
X016966Y008391D01*
X016924Y008367D01*
X016879Y008355D01*
X016725Y008355D01*
X016725Y008935D01*
X016725Y008935D01*
X016725Y009515D01*
X016879Y009515D01*
X016924Y009503D01*
X016966Y009479D01*
X016999Y009446D01*
X017002Y009440D01*
X017035Y009473D01*
X017035Y018526D01*
X016992Y018569D01*
X016950Y018670D01*
X016950Y018780D01*
X016992Y018881D01*
X017069Y018958D01*
X017170Y019000D01*
X017280Y019000D01*
X017381Y018958D01*
X017458Y018881D01*
X017500Y018780D01*
X017500Y018670D01*
X017458Y018569D01*
X017415Y018526D01*
X017415Y009473D01*
X017475Y009413D01*
X017537Y009475D01*
X017913Y009475D01*
X017975Y009413D01*
X018037Y009475D01*
X018413Y009475D01*
X018475Y009413D01*
X018537Y009475D01*
X018913Y009475D01*
X018975Y009413D01*
X019037Y009475D01*
X019413Y009475D01*
X019495Y009393D01*
X019495Y008477D01*
X019485Y008467D02*
X020256Y008467D01*
X020230Y008309D02*
X018827Y008309D01*
X019495Y008784D02*
X021915Y008784D01*
X021915Y008943D02*
X019495Y008943D01*
X019495Y009101D02*
X021915Y009101D01*
X021915Y009260D02*
X019495Y009260D01*
X019470Y009418D02*
X021935Y009418D01*
X022225Y009418D02*
X022225Y009418D01*
X022225Y009260D02*
X022225Y009260D01*
X022225Y009101D02*
X022225Y009101D01*
X022225Y008943D02*
X022225Y008943D01*
X022225Y008784D02*
X022225Y008784D01*
X022225Y008626D02*
X022225Y008626D01*
X022225Y008467D02*
X022225Y008467D01*
X022725Y008467D02*
X022725Y008467D01*
X022725Y008626D02*
X022725Y008626D01*
X022725Y008784D02*
X022725Y008784D01*
X022725Y008943D02*
X022725Y008943D01*
X022725Y009101D02*
X022725Y009101D01*
X022725Y009260D02*
X022725Y009260D01*
X022725Y009418D02*
X022725Y009418D01*
X023035Y009577D02*
X017415Y009577D01*
X017415Y009735D02*
X023035Y009735D01*
X023035Y009894D02*
X017415Y009894D01*
X017415Y010052D02*
X022950Y010052D01*
X022973Y010211D02*
X017415Y010211D01*
X017415Y010369D02*
X023156Y010369D01*
X023294Y010369D02*
X023535Y010369D01*
X023535Y010211D02*
X023477Y010211D01*
X023500Y010052D02*
X023535Y010052D01*
X023535Y009894D02*
X023415Y009894D01*
X023415Y009735D02*
X023535Y009735D01*
X023535Y009577D02*
X023415Y009577D01*
X023470Y009418D02*
X023480Y009418D01*
X023915Y009577D02*
X024535Y009577D01*
X024535Y009735D02*
X023915Y009735D01*
X023915Y009894D02*
X024535Y009894D01*
X024535Y010052D02*
X023915Y010052D01*
X023915Y010211D02*
X024535Y010211D01*
X024535Y010369D02*
X023915Y010369D01*
X023915Y010528D02*
X024535Y010528D01*
X024535Y010686D02*
X023915Y010686D01*
X024009Y010845D02*
X024535Y010845D01*
X024535Y011003D02*
X024072Y011003D01*
X024072Y011162D02*
X024535Y011162D01*
X024535Y011320D02*
X024483Y011320D01*
X024525Y011479D02*
X024535Y011479D01*
X024535Y011637D02*
X024477Y011637D01*
X024535Y011796D02*
X024072Y011796D01*
X024072Y011954D02*
X024535Y011954D01*
X024535Y012113D02*
X024002Y012113D01*
X023925Y012271D02*
X024535Y012271D01*
X024535Y012430D02*
X023803Y012430D01*
X023704Y012529D02*
X023704Y012529D01*
X023645Y012588D02*
X024535Y012588D01*
X024535Y012747D02*
X023951Y012747D01*
X023944Y012742D02*
X023985Y012766D01*
X024019Y012800D01*
X024042Y012841D01*
X024055Y012886D01*
X024055Y013177D01*
X023667Y013177D01*
X023667Y012730D01*
X023898Y012730D01*
X023944Y012742D01*
X024055Y012905D02*
X024535Y012905D01*
X024535Y013064D02*
X024055Y013064D01*
X023667Y013064D02*
X023571Y013064D01*
X023571Y012905D02*
X023667Y012905D01*
X023667Y012747D02*
X023571Y012747D01*
X023286Y012747D02*
X022915Y012747D01*
X022535Y012747D02*
X017415Y012747D01*
X017415Y012905D02*
X022435Y012905D01*
X022435Y013064D02*
X017415Y013064D01*
X017415Y013222D02*
X022435Y013222D01*
X022435Y013381D02*
X017415Y013381D01*
X017415Y013539D02*
X022435Y013539D01*
X023276Y013698D02*
X017415Y013698D01*
X017415Y013856D02*
X024535Y013856D01*
X024535Y013698D02*
X023962Y013698D01*
X024055Y013539D02*
X024535Y013539D01*
X024535Y013381D02*
X024055Y013381D01*
X023667Y013381D02*
X023571Y013381D01*
X023571Y013539D02*
X023667Y013539D01*
X023667Y013698D02*
X023571Y013698D01*
X023667Y013222D02*
X024535Y013222D01*
X024915Y013222D02*
X027376Y013222D01*
X027400Y013381D02*
X024915Y013381D01*
X024915Y013539D02*
X027486Y013539D01*
X027720Y013698D02*
X024915Y013698D01*
X024915Y013856D02*
X027484Y013856D01*
X027378Y014015D02*
X024915Y014015D01*
X024915Y014173D02*
X027338Y014173D01*
X027347Y014332D02*
X024915Y014332D01*
X024915Y014490D02*
X027406Y014490D01*
X027545Y014649D02*
X024915Y014649D01*
X024915Y014807D02*
X028995Y014807D01*
X028995Y014649D02*
X028905Y014649D01*
X028995Y014966D02*
X024915Y014966D01*
X024845Y015124D02*
X028995Y015124D01*
X028995Y015283D02*
X024686Y015283D01*
X024466Y014966D02*
X017415Y014966D01*
X017415Y015124D02*
X023682Y015124D01*
X023524Y015283D02*
X017415Y015283D01*
X017415Y015441D02*
X023410Y015441D01*
X023410Y015600D02*
X021522Y015600D01*
X021632Y015758D02*
X023410Y015758D01*
X023790Y015758D02*
X024818Y015758D01*
X024785Y015837D02*
X024852Y015676D01*
X024976Y015552D01*
X025137Y015485D01*
X025313Y015485D01*
X025474Y015552D01*
X025598Y015676D01*
X025665Y015837D01*
X025665Y016613D01*
X025598Y016774D01*
X025474Y016898D01*
X025313Y016965D01*
X025137Y016965D01*
X024976Y016898D01*
X024852Y016774D01*
X024785Y016613D01*
X024785Y015837D01*
X024785Y015917D02*
X023995Y015917D01*
X023995Y016075D02*
X024785Y016075D01*
X024785Y016234D02*
X023995Y016234D01*
X023995Y016392D02*
X024785Y016392D01*
X024785Y016551D02*
X023995Y016551D01*
X024825Y016709D02*
X021625Y016709D01*
X021665Y016551D02*
X022455Y016551D01*
X022455Y015917D02*
X021665Y015917D01*
X020928Y015600D02*
X020522Y015600D01*
X020474Y015552D02*
X020598Y015676D01*
X020665Y015837D01*
X020665Y016613D01*
X020598Y016774D01*
X020474Y016898D01*
X020313Y016965D01*
X020137Y016965D01*
X019976Y016898D01*
X019852Y016774D01*
X019785Y016613D01*
X019785Y015837D01*
X019852Y015676D01*
X019976Y015552D01*
X020137Y015485D01*
X020313Y015485D01*
X020474Y015552D01*
X020632Y015758D02*
X020818Y015758D01*
X020785Y015917D02*
X020665Y015917D01*
X020665Y016075D02*
X020785Y016075D01*
X020785Y016234D02*
X020665Y016234D01*
X020665Y016392D02*
X020785Y016392D01*
X020785Y016551D02*
X020665Y016551D01*
X020625Y016709D02*
X020825Y016709D01*
X020945Y016868D02*
X020505Y016868D01*
X019945Y016868D02*
X019561Y016868D01*
X019538Y016891D02*
X019477Y016936D01*
X019409Y016970D01*
X019337Y016993D01*
X019263Y017005D01*
X019245Y017005D01*
X019245Y016245D01*
X019705Y016245D01*
X019705Y016563D01*
X019693Y016637D01*
X019670Y016709D01*
X019825Y016709D01*
X019670Y016709D02*
X019636Y016777D01*
X019591Y016838D01*
X019538Y016891D01*
X019245Y016868D02*
X019205Y016868D01*
X019205Y017005D02*
X019187Y017005D01*
X019113Y016993D01*
X019041Y016970D01*
X018973Y016936D01*
X018912Y016891D01*
X018859Y016838D01*
X018814Y016777D01*
X018780Y016709D01*
X017415Y016709D01*
X017415Y016551D02*
X018745Y016551D01*
X018745Y016563D02*
X018745Y016245D01*
X019205Y016245D01*
X019205Y017005D01*
X018889Y016868D02*
X017415Y016868D01*
X017415Y017026D02*
X028995Y017026D01*
X028995Y016868D02*
X027505Y016868D01*
X027474Y016898D02*
X027313Y016965D01*
X027137Y016965D01*
X026976Y016898D01*
X026852Y016774D01*
X026785Y016613D01*
X026785Y015837D01*
X026852Y015676D01*
X026976Y015552D01*
X027137Y015485D01*
X027313Y015485D01*
X027474Y015552D01*
X027598Y015676D01*
X027665Y015837D01*
X027665Y016613D01*
X027598Y016774D01*
X027474Y016898D01*
X027625Y016709D02*
X028995Y016709D01*
X028995Y016551D02*
X027665Y016551D01*
X027665Y016392D02*
X028995Y016392D01*
X028995Y016234D02*
X027665Y016234D01*
X027665Y016075D02*
X028995Y016075D01*
X028995Y015917D02*
X027665Y015917D01*
X027632Y015758D02*
X028995Y015758D01*
X028995Y015600D02*
X027522Y015600D01*
X026928Y015600D02*
X026522Y015600D01*
X026474Y015552D02*
X026598Y015676D01*
X026665Y015837D01*
X026665Y016613D01*
X026598Y016774D01*
X026474Y016898D01*
X026313Y016965D01*
X026137Y016965D01*
X025976Y016898D01*
X025852Y016774D01*
X025785Y016613D01*
X025785Y015837D01*
X025852Y015676D01*
X025976Y015552D01*
X026137Y015485D01*
X026313Y015485D01*
X026474Y015552D01*
X026632Y015758D02*
X026818Y015758D01*
X026785Y015917D02*
X026665Y015917D01*
X026665Y016075D02*
X026785Y016075D01*
X026785Y016234D02*
X026665Y016234D01*
X026665Y016392D02*
X026785Y016392D01*
X026785Y016551D02*
X026665Y016551D01*
X026625Y016709D02*
X026825Y016709D01*
X026945Y016868D02*
X026505Y016868D01*
X025945Y016868D02*
X025505Y016868D01*
X025625Y016709D02*
X025825Y016709D01*
X025785Y016551D02*
X025665Y016551D01*
X025665Y016392D02*
X025785Y016392D01*
X025785Y016234D02*
X025665Y016234D01*
X025665Y016075D02*
X025785Y016075D01*
X025785Y015917D02*
X025665Y015917D01*
X025632Y015758D02*
X025818Y015758D01*
X025928Y015600D02*
X025522Y015600D01*
X024928Y015600D02*
X023790Y015600D01*
X023903Y015441D02*
X028995Y015441D01*
X028263Y014649D02*
X028187Y014649D01*
X028187Y014490D02*
X028263Y014490D01*
X028263Y014332D02*
X028187Y014332D01*
X027402Y013064D02*
X024915Y013064D01*
X024915Y012905D02*
X027492Y012905D01*
X027734Y012747D02*
X024915Y012747D01*
X024915Y012588D02*
X028995Y012588D01*
X028995Y012430D02*
X024915Y012430D01*
X024915Y012271D02*
X028995Y012271D01*
X028995Y012113D02*
X024915Y012113D01*
X024915Y011954D02*
X028995Y011954D01*
X028995Y011796D02*
X024915Y011796D01*
X024915Y011637D02*
X028995Y011637D01*
X028995Y011479D02*
X024915Y011479D01*
X024915Y011320D02*
X028995Y011320D01*
X028995Y011162D02*
X024915Y011162D01*
X024915Y011003D02*
X028995Y011003D01*
X028995Y010845D02*
X024915Y010845D01*
X024915Y010686D02*
X028995Y010686D01*
X028995Y010528D02*
X024915Y010528D01*
X024915Y010369D02*
X028995Y010369D01*
X028995Y010211D02*
X024915Y010211D01*
X024915Y010052D02*
X028995Y010052D01*
X028995Y009894D02*
X024915Y009894D01*
X024915Y009735D02*
X028995Y009735D01*
X028995Y009577D02*
X024915Y009577D01*
X024970Y009418D02*
X024980Y009418D01*
X024480Y009418D02*
X024470Y009418D01*
X023980Y009418D02*
X023970Y009418D01*
X023535Y010528D02*
X017415Y010528D01*
X017415Y010686D02*
X023535Y010686D01*
X023465Y010845D02*
X023046Y010845D01*
X023092Y011003D02*
X023402Y011003D01*
X023402Y011162D02*
X023092Y011162D01*
X023092Y011101D02*
X022717Y011101D01*
X022717Y011101D01*
X023092Y011101D01*
X022717Y011003D02*
X022717Y011003D01*
X022717Y010845D02*
X022717Y010845D01*
X022388Y010845D02*
X017415Y010845D01*
X017415Y011003D02*
X022342Y011003D01*
X022342Y011162D02*
X017415Y011162D01*
X017415Y011320D02*
X022362Y011320D01*
X022382Y011479D02*
X017415Y011479D01*
X017415Y011637D02*
X022382Y011637D01*
X022382Y011796D02*
X017415Y011796D01*
X017415Y011954D02*
X022382Y011954D01*
X022452Y012113D02*
X017415Y012113D01*
X017415Y012271D02*
X022540Y012271D01*
X022450Y012430D02*
X017415Y012430D01*
X017415Y012588D02*
X022474Y012588D01*
X022910Y012271D02*
X023396Y012271D01*
X023472Y012113D02*
X022982Y012113D01*
X023052Y011954D02*
X023402Y011954D01*
X023402Y011796D02*
X023052Y011796D01*
X024535Y014015D02*
X017415Y014015D01*
X017415Y014173D02*
X024535Y014173D01*
X024535Y014332D02*
X017415Y014332D01*
X017415Y014490D02*
X024535Y014490D01*
X024535Y014649D02*
X017415Y014649D01*
X017415Y014807D02*
X024535Y014807D01*
X024945Y016868D02*
X021505Y016868D01*
X019785Y016551D02*
X019705Y016551D01*
X019705Y016392D02*
X019785Y016392D01*
X019785Y016234D02*
X019245Y016234D01*
X019245Y016245D02*
X019245Y016205D01*
X019705Y016205D01*
X019705Y015887D01*
X019693Y015813D01*
X019670Y015741D01*
X019636Y015673D01*
X019591Y015612D01*
X019538Y015559D01*
X019477Y015514D01*
X019409Y015480D01*
X019337Y015457D01*
X019263Y015445D01*
X019245Y015445D01*
X019245Y016205D01*
X019205Y016205D01*
X019205Y015445D01*
X019187Y015445D01*
X019113Y015457D01*
X019041Y015480D01*
X018973Y015514D01*
X018912Y015559D01*
X018859Y015612D01*
X018814Y015673D01*
X018780Y015741D01*
X018757Y015813D01*
X018745Y015887D01*
X018745Y016205D01*
X019205Y016205D01*
X019205Y016245D01*
X019245Y016245D01*
X019205Y016234D02*
X017415Y016234D01*
X017415Y016392D02*
X018745Y016392D01*
X018745Y016563D02*
X018757Y016637D01*
X018780Y016709D01*
X019205Y016709D02*
X019245Y016709D01*
X019245Y016551D02*
X019205Y016551D01*
X019205Y016392D02*
X019245Y016392D01*
X019245Y016075D02*
X019205Y016075D01*
X019205Y015917D02*
X019245Y015917D01*
X019245Y015758D02*
X019205Y015758D01*
X019205Y015600D02*
X019245Y015600D01*
X019578Y015600D02*
X019928Y015600D01*
X019818Y015758D02*
X019675Y015758D01*
X019705Y015917D02*
X019785Y015917D01*
X019785Y016075D02*
X019705Y016075D01*
X018872Y015600D02*
X017415Y015600D01*
X017415Y015758D02*
X018775Y015758D01*
X018745Y015917D02*
X017415Y015917D01*
X017415Y016075D02*
X018745Y016075D01*
X017035Y016075D02*
X015868Y016075D01*
X016019Y015917D02*
X017035Y015917D01*
X017035Y015758D02*
X016065Y015758D01*
X016065Y015600D02*
X017035Y015600D01*
X017035Y015441D02*
X016648Y015441D01*
X016631Y015458D02*
X016530Y015500D01*
X016420Y015500D01*
X016319Y015458D01*
X016242Y015381D01*
X016200Y015280D01*
X016200Y015170D01*
X016242Y015069D01*
X016285Y015026D01*
X016285Y010174D01*
X016242Y010131D01*
X016200Y010030D01*
X016200Y009920D01*
X016242Y009819D01*
X016319Y009742D01*
X016420Y009700D01*
X016530Y009700D01*
X016631Y009742D01*
X016708Y009819D01*
X016750Y009920D01*
X016750Y010030D01*
X016708Y010131D01*
X016665Y010174D01*
X016665Y015026D01*
X016708Y015069D01*
X016750Y015170D01*
X016750Y015280D01*
X016708Y015381D01*
X016631Y015458D01*
X016749Y015283D02*
X017035Y015283D01*
X017035Y015124D02*
X016731Y015124D01*
X016665Y014966D02*
X017035Y014966D01*
X017035Y014807D02*
X016665Y014807D01*
X016665Y014649D02*
X017035Y014649D01*
X017035Y014490D02*
X016665Y014490D01*
X016665Y014332D02*
X017035Y014332D01*
X017035Y014173D02*
X016665Y014173D01*
X016665Y014015D02*
X017035Y014015D01*
X017035Y013856D02*
X016665Y013856D01*
X016665Y013698D02*
X017035Y013698D01*
X017035Y013539D02*
X016665Y013539D01*
X016665Y013381D02*
X017035Y013381D01*
X017035Y013222D02*
X016665Y013222D01*
X016665Y013064D02*
X017035Y013064D01*
X017035Y012905D02*
X016665Y012905D01*
X016665Y012747D02*
X017035Y012747D01*
X017035Y012588D02*
X016665Y012588D01*
X016665Y012430D02*
X017035Y012430D01*
X017035Y012271D02*
X016665Y012271D01*
X016665Y012113D02*
X017035Y012113D01*
X017035Y011954D02*
X016665Y011954D01*
X016665Y011796D02*
X017035Y011796D01*
X017035Y011637D02*
X016665Y011637D01*
X016665Y011479D02*
X017035Y011479D01*
X017035Y011320D02*
X016665Y011320D01*
X016665Y011162D02*
X017035Y011162D01*
X017035Y011003D02*
X016665Y011003D01*
X016665Y010845D02*
X017035Y010845D01*
X017035Y010686D02*
X016665Y010686D01*
X016665Y010528D02*
X017035Y010528D01*
X017035Y010369D02*
X016665Y010369D01*
X016665Y010211D02*
X017035Y010211D01*
X017035Y010052D02*
X016741Y010052D01*
X016739Y009894D02*
X017035Y009894D01*
X017035Y009735D02*
X016614Y009735D01*
X016571Y009515D02*
X016526Y009503D01*
X016484Y009479D01*
X016475Y009470D01*
X016466Y009479D01*
X016424Y009503D01*
X016379Y009515D01*
X016225Y009515D01*
X016225Y008935D01*
X016225Y008935D01*
X016535Y008935D01*
X016725Y008935D01*
X016725Y009515D01*
X016571Y009515D01*
X016725Y009418D02*
X016725Y009418D01*
X016725Y009260D02*
X016725Y009260D01*
X016725Y009101D02*
X016725Y009101D01*
X016725Y008943D02*
X016725Y008943D01*
X016725Y008935D02*
X016725Y008935D01*
X016725Y008935D01*
X016725Y008355D01*
X016571Y008355D01*
X016526Y008367D01*
X016484Y008391D01*
X016475Y008400D01*
X016466Y008391D01*
X016424Y008367D01*
X016379Y008355D01*
X016225Y008355D01*
X016225Y008935D01*
X016225Y008935D01*
X016225Y008935D01*
X015915Y008935D01*
X015915Y009359D01*
X015927Y009404D01*
X015951Y009446D01*
X015984Y009479D01*
X016026Y009503D01*
X016071Y009515D01*
X016225Y009515D01*
X016225Y008935D01*
X016225Y008935D01*
X016725Y008935D01*
X016725Y008784D02*
X016725Y008784D01*
X016725Y008626D02*
X016725Y008626D01*
X016725Y008467D02*
X016725Y008467D01*
X016225Y008467D02*
X016225Y008467D01*
X016225Y008355D02*
X016071Y008355D01*
X016026Y008367D01*
X015984Y008391D01*
X015951Y008424D01*
X015927Y008466D01*
X015915Y008511D01*
X015915Y008935D01*
X016225Y008935D01*
X016225Y008355D01*
X015927Y008467D02*
X015194Y008467D01*
X015220Y008309D02*
X017123Y008309D01*
X016225Y008626D02*
X016225Y008626D01*
X016225Y008784D02*
X016225Y008784D01*
X016225Y008943D02*
X016225Y008943D01*
X016225Y009101D02*
X016225Y009101D01*
X016225Y009260D02*
X016225Y009260D01*
X016225Y009418D02*
X016225Y009418D01*
X015935Y009418D02*
X013470Y009418D01*
X013495Y009393D02*
X013413Y009475D01*
X013037Y009475D01*
X012975Y009413D01*
X012913Y009475D01*
X012537Y009475D01*
X012475Y009413D01*
X012413Y009475D01*
X012037Y009475D01*
X011975Y009413D01*
X011913Y009475D01*
X011537Y009475D01*
X011475Y009413D01*
X011413Y009475D01*
X011037Y009475D01*
X011002Y009440D01*
X010999Y009446D01*
X010966Y009479D01*
X010924Y009503D01*
X010879Y009515D01*
X010725Y009515D01*
X010725Y008935D01*
X010725Y008935D01*
X010725Y009515D01*
X010571Y009515D01*
X010526Y009503D01*
X010484Y009479D01*
X010475Y009470D01*
X010466Y009479D01*
X010424Y009503D01*
X010379Y009515D01*
X010225Y009515D01*
X010225Y008935D01*
X010225Y008935D01*
X010535Y008935D01*
X010725Y008935D01*
X010725Y008355D01*
X010879Y008355D01*
X010924Y008367D01*
X010966Y008391D01*
X010999Y008424D01*
X011002Y008430D01*
X011035Y008397D01*
X011035Y008396D01*
X011160Y008271D01*
X011271Y008160D01*
X012679Y008160D01*
X012725Y008206D01*
X012771Y008160D01*
X013651Y008160D01*
X013694Y008117D01*
X013795Y008075D01*
X013905Y008075D01*
X014006Y008117D01*
X014083Y008194D01*
X014125Y008295D01*
X014125Y008405D01*
X014083Y008506D01*
X014006Y008583D01*
X013905Y008625D01*
X013795Y008625D01*
X013694Y008583D01*
X013651Y008540D01*
X013495Y008540D01*
X013495Y009393D01*
X013495Y009260D02*
X015915Y009260D01*
X015915Y009101D02*
X013495Y009101D01*
X013495Y008943D02*
X015915Y008943D01*
X015915Y008784D02*
X013495Y008784D01*
X013495Y008626D02*
X015915Y008626D01*
X015220Y007992D02*
X020230Y007992D01*
X020232Y007833D02*
X015218Y007833D01*
X015151Y007675D02*
X020299Y007675D01*
X020677Y008150D02*
X014773Y008150D01*
X014677Y008150D02*
X014039Y008150D01*
X014125Y008309D02*
X014230Y008309D01*
X014256Y008467D02*
X014099Y008467D01*
X014230Y007992D02*
X009220Y007992D01*
X009218Y007833D02*
X014232Y007833D01*
X014299Y007675D02*
X009151Y007675D01*
X009220Y008167D02*
X008773Y008167D01*
X008773Y008555D01*
X009064Y008555D01*
X009109Y008542D01*
X009150Y008519D01*
X009184Y008485D01*
X009208Y008444D01*
X009220Y008398D01*
X009220Y008167D01*
X009220Y008309D02*
X011123Y008309D01*
X010725Y008355D02*
X010725Y008935D01*
X010725Y008935D01*
X010725Y008935D01*
X010225Y008935D01*
X010225Y008935D01*
X010225Y008935D01*
X009915Y008935D01*
X009915Y009359D01*
X009927Y009404D01*
X009951Y009446D01*
X009984Y009479D01*
X010026Y009503D01*
X010071Y009515D01*
X010225Y009515D01*
X010225Y008935D01*
X010225Y008355D01*
X010379Y008355D01*
X010424Y008367D01*
X010466Y008391D01*
X010475Y008400D01*
X010484Y008391D01*
X010526Y008367D01*
X010571Y008355D01*
X010725Y008355D01*
X010725Y008467D02*
X010725Y008467D01*
X010725Y008626D02*
X010725Y008626D01*
X010725Y008784D02*
X010725Y008784D01*
X010725Y008943D02*
X010725Y008943D01*
X010725Y009101D02*
X010725Y009101D01*
X010725Y009260D02*
X010725Y009260D01*
X010725Y009418D02*
X010725Y009418D01*
X010225Y009418D02*
X010225Y009418D01*
X010225Y009260D02*
X010225Y009260D01*
X010225Y009101D02*
X010225Y009101D01*
X010225Y008943D02*
X010225Y008943D01*
X010225Y008935D02*
X009915Y008935D01*
X009915Y008511D01*
X009927Y008466D01*
X009951Y008424D01*
X009984Y008391D01*
X010026Y008367D01*
X010071Y008355D01*
X010225Y008355D01*
X010225Y008935D01*
X010225Y008935D01*
X010225Y008784D02*
X010225Y008784D01*
X010225Y008626D02*
X010225Y008626D01*
X010225Y008467D02*
X010225Y008467D01*
X009927Y008467D02*
X009194Y008467D01*
X008773Y008467D02*
X008677Y008467D01*
X008677Y008309D02*
X008773Y008309D01*
X008773Y008150D02*
X013661Y008150D01*
X014677Y008309D02*
X014773Y008309D01*
X014773Y008467D02*
X014677Y008467D01*
X012980Y009418D02*
X012970Y009418D01*
X012480Y009418D02*
X012470Y009418D01*
X011980Y009418D02*
X011970Y009418D01*
X011480Y009418D02*
X011470Y009418D01*
X009935Y009418D02*
X007470Y009418D01*
X007495Y009393D02*
X007413Y009475D01*
X007037Y009475D01*
X006975Y009413D01*
X006913Y009475D01*
X006537Y009475D01*
X006475Y009413D01*
X006413Y009475D01*
X006037Y009475D01*
X005975Y009413D01*
X005913Y009475D01*
X005537Y009475D01*
X005475Y009413D01*
X005413Y009475D01*
X005037Y009475D01*
X005002Y009440D01*
X004999Y009446D01*
X004966Y009479D01*
X004924Y009503D01*
X004879Y009515D01*
X004725Y009515D01*
X004725Y008935D01*
X004725Y008935D01*
X004725Y009515D01*
X004571Y009515D01*
X004526Y009503D01*
X004484Y009479D01*
X004475Y009470D01*
X004466Y009479D01*
X004424Y009503D01*
X004379Y009515D01*
X004225Y009515D01*
X004225Y008935D01*
X004225Y008935D01*
X004535Y008935D01*
X004725Y008935D01*
X004725Y008355D01*
X004879Y008355D01*
X004924Y008367D01*
X004966Y008391D01*
X004999Y008424D01*
X005002Y008430D01*
X005035Y008397D01*
X005035Y008396D01*
X005160Y008271D01*
X005271Y008160D01*
X006679Y008160D01*
X006725Y008206D01*
X006771Y008160D01*
X007804Y008160D01*
X007915Y008271D01*
X008165Y008521D01*
X008165Y008776D01*
X008208Y008819D01*
X008250Y008920D01*
X008250Y009030D01*
X008208Y009131D01*
X008131Y009208D01*
X008030Y009250D01*
X007920Y009250D01*
X007819Y009208D01*
X007742Y009131D01*
X007700Y009030D01*
X007700Y008920D01*
X007742Y008819D01*
X007785Y008776D01*
X007785Y008679D01*
X007646Y008540D01*
X007495Y008540D01*
X007495Y009393D01*
X007495Y009260D02*
X009915Y009260D01*
X009915Y009101D02*
X008220Y009101D01*
X008250Y008943D02*
X009915Y008943D01*
X009915Y008784D02*
X008173Y008784D01*
X008165Y008626D02*
X009915Y008626D01*
X008677Y008150D02*
X000455Y008150D01*
X000455Y007992D02*
X008230Y007992D01*
X008232Y007833D02*
X000455Y007833D01*
X000455Y007675D02*
X008299Y007675D01*
X008270Y007041D02*
X007427Y007041D01*
X007495Y006882D02*
X009955Y006882D01*
X009955Y006724D02*
X009154Y006724D01*
X009220Y006565D02*
X009955Y006565D01*
X009955Y006407D02*
X009220Y006407D01*
X009388Y006248D02*
X009955Y006248D01*
X009955Y006090D02*
X009547Y006090D01*
X009225Y006100D02*
X009600Y005725D01*
X009600Y003600D01*
X009820Y003712D02*
X019880Y003712D01*
X019880Y003554D02*
X018708Y003554D01*
X018866Y003395D02*
X019709Y003395D01*
X019880Y003871D02*
X009820Y003871D01*
X009820Y004029D02*
X015485Y004029D01*
X015326Y004188D02*
X009820Y004188D01*
X009820Y004346D02*
X015168Y004346D01*
X015130Y004505D02*
X009820Y004505D01*
X009820Y004663D02*
X015130Y004663D01*
X015600Y004600D02*
X015725Y004475D01*
X020100Y004475D01*
X020350Y004225D01*
X020350Y003350D01*
X020475Y003225D01*
X020600Y003225D01*
X020725Y003100D01*
X020725Y002225D01*
X021219Y002286D02*
X021231Y002286D01*
X021219Y002444D02*
X021231Y002444D01*
X021219Y002603D02*
X021231Y002603D01*
X021265Y002761D02*
X021185Y002761D01*
X021084Y002920D02*
X021366Y002920D01*
X021505Y003078D02*
X020945Y003078D01*
X020900Y003237D02*
X021550Y003237D01*
X021725Y003100D02*
X021725Y002225D01*
X021231Y002127D02*
X021219Y002127D01*
X021219Y001969D02*
X021231Y001969D01*
X021219Y001810D02*
X021231Y001810D01*
X021281Y001652D02*
X021169Y001652D01*
X021046Y001493D02*
X021404Y001493D01*
X022046Y001493D02*
X022404Y001493D01*
X022281Y001652D02*
X022169Y001652D01*
X022219Y001810D02*
X022231Y001810D01*
X022219Y001969D02*
X022231Y001969D01*
X022219Y002127D02*
X022231Y002127D01*
X022219Y002286D02*
X022231Y002286D01*
X022219Y002444D02*
X022231Y002444D01*
X022219Y002603D02*
X022231Y002603D01*
X022265Y002761D02*
X022185Y002761D01*
X022084Y002920D02*
X022366Y002920D01*
X022311Y003078D02*
X022139Y003078D01*
X021975Y003225D02*
X021850Y003225D01*
X021725Y003100D01*
X021975Y003225D02*
X022100Y003350D01*
X022100Y005475D01*
X021975Y005600D01*
X021475Y005600D01*
X021225Y005350D01*
X020225Y005350D01*
X019975Y005600D01*
X018100Y005600D01*
X017725Y005975D01*
X017725Y006475D01*
X018225Y006475D02*
X018225Y005975D01*
X018350Y005850D01*
X019975Y005850D01*
X020225Y006100D01*
X021225Y006100D01*
X021475Y005850D01*
X021483Y005297D02*
X021880Y005297D01*
X021880Y005139D02*
X021325Y005139D01*
X021220Y004980D02*
X021880Y004980D01*
X021880Y004822D02*
X021220Y004822D01*
X021880Y004663D02*
X020223Y004663D01*
X020230Y004822D02*
X015820Y004822D01*
X015820Y004980D02*
X020230Y004980D01*
X020125Y005139D02*
X015820Y005139D01*
X015820Y005297D02*
X019967Y005297D01*
X019903Y006090D02*
X019495Y006090D01*
X019495Y006248D02*
X020062Y006248D01*
X020230Y006407D02*
X019495Y006407D01*
X019495Y006565D02*
X020230Y006565D01*
X018523Y007041D02*
X018427Y007041D01*
X018023Y007041D02*
X017927Y007041D01*
X017523Y007041D02*
X017427Y007041D01*
X017023Y007041D02*
X016927Y007041D01*
X016523Y007041D02*
X016427Y007041D01*
X015955Y006724D02*
X015154Y006724D01*
X015220Y006565D02*
X015955Y006565D01*
X015955Y006407D02*
X015220Y006407D01*
X015388Y006248D02*
X015955Y006248D01*
X015955Y006090D02*
X015547Y006090D01*
X015705Y005931D02*
X016495Y005931D01*
X016417Y005773D02*
X015820Y005773D01*
X015820Y005614D02*
X016437Y005614D01*
X016570Y005456D02*
X015820Y005456D01*
X015600Y005725D02*
X015600Y004600D01*
X014230Y004822D02*
X009820Y004822D01*
X009820Y004980D02*
X014230Y004980D01*
X014125Y005139D02*
X009820Y005139D01*
X009820Y005297D02*
X013967Y005297D01*
X013975Y005850D02*
X014225Y006100D01*
X015225Y006100D01*
X015600Y005725D01*
X016725Y005725D02*
X016725Y006475D01*
X017225Y006475D02*
X017225Y005725D01*
X017513Y005614D02*
X017775Y005614D01*
X017933Y005456D02*
X017380Y005456D01*
X017533Y005773D02*
X017616Y005773D01*
X017505Y005931D02*
X017455Y005931D01*
X017070Y005456D02*
X016880Y005456D01*
X014230Y006407D02*
X013495Y006407D01*
X013495Y006565D02*
X014230Y006565D01*
X014062Y006248D02*
X013495Y006248D01*
X013495Y006090D02*
X013903Y006090D01*
X013975Y005850D02*
X012350Y005850D01*
X012225Y005975D01*
X012225Y006475D01*
X012023Y007041D02*
X011927Y007041D01*
X011523Y007041D02*
X011427Y007041D01*
X011023Y007041D02*
X010927Y007041D01*
X012427Y007041D02*
X012523Y007041D01*
X011505Y005931D02*
X011455Y005931D01*
X011533Y005773D02*
X011616Y005773D01*
X009350Y005225D02*
X009350Y003475D01*
X009600Y003225D01*
X017475Y003225D01*
X017725Y002975D01*
X017725Y002225D01*
X018219Y002286D02*
X018231Y002286D01*
X018219Y002444D02*
X018231Y002444D01*
X018219Y002603D02*
X018231Y002603D01*
X018265Y002761D02*
X018185Y002761D01*
X018084Y002920D02*
X018366Y002920D01*
X018505Y003078D02*
X017933Y003078D01*
X017775Y003237D02*
X018402Y003237D01*
X018231Y002127D02*
X018219Y002127D01*
X018219Y001969D02*
X018231Y001969D01*
X018219Y001810D02*
X018231Y001810D01*
X018281Y001652D02*
X018169Y001652D01*
X018046Y001493D02*
X018404Y001493D01*
X017404Y001493D02*
X017103Y001493D01*
X017213Y001652D02*
X017281Y001652D01*
X016763Y001652D02*
X016687Y001652D01*
X016687Y001810D02*
X016763Y001810D01*
X016763Y001969D02*
X016687Y001969D01*
X016687Y002127D02*
X016763Y002127D01*
X016687Y002187D02*
X016687Y001336D01*
X016683Y001336D01*
X016600Y001349D01*
X016520Y001375D01*
X016445Y001414D01*
X016377Y001463D01*
X016317Y001523D01*
X016268Y001591D01*
X016230Y001666D01*
X016204Y001746D01*
X016191Y001829D01*
X016191Y002187D01*
X016687Y002187D01*
X016191Y002127D02*
X013219Y002127D01*
X013219Y001969D02*
X016191Y001969D01*
X016194Y001810D02*
X013219Y001810D01*
X013169Y001652D02*
X016237Y001652D01*
X016347Y001493D02*
X013046Y001493D01*
X012404Y001493D02*
X012046Y001493D01*
X012169Y001652D02*
X012281Y001652D01*
X012231Y001810D02*
X012219Y001810D01*
X012219Y001969D02*
X012231Y001969D01*
X012219Y002127D02*
X012231Y002127D01*
X012219Y002286D02*
X012231Y002286D01*
X012219Y002444D02*
X012231Y002444D01*
X012219Y002603D02*
X012231Y002603D01*
X012265Y002761D02*
X012185Y002761D01*
X012084Y002920D02*
X012366Y002920D01*
X013084Y002920D02*
X016312Y002920D01*
X016222Y002761D02*
X013185Y002761D01*
X013219Y002603D02*
X016191Y002603D01*
X016191Y002444D02*
X013219Y002444D01*
X013219Y002286D02*
X016191Y002286D01*
X016687Y001493D02*
X016763Y001493D01*
X020570Y003554D02*
X021880Y003554D01*
X021880Y003712D02*
X020570Y003712D01*
X020570Y003871D02*
X021880Y003871D01*
X021880Y004029D02*
X020570Y004029D01*
X020570Y004188D02*
X021880Y004188D01*
X021880Y004346D02*
X020540Y004346D01*
X020382Y004505D02*
X021880Y004505D01*
X022570Y004505D02*
X023210Y004505D01*
X023210Y004663D02*
X022570Y004663D01*
X022570Y004822D02*
X023210Y004822D01*
X023669Y004980D02*
X022570Y004980D01*
X022570Y005139D02*
X023827Y005139D01*
X023880Y005297D02*
X022570Y005297D01*
X023533Y005773D02*
X023616Y005773D01*
X023505Y005931D02*
X023455Y005931D01*
X024225Y005850D02*
X024225Y006475D01*
X024455Y005931D02*
X028995Y005931D01*
X028995Y005773D02*
X024570Y005773D01*
X024570Y005614D02*
X028995Y005614D01*
X028995Y005456D02*
X024570Y005456D01*
X024570Y005297D02*
X028995Y005297D01*
X028995Y005139D02*
X024623Y005139D01*
X024781Y004980D02*
X028995Y004980D01*
X028995Y004822D02*
X025240Y004822D01*
X025240Y004663D02*
X028995Y004663D01*
X028995Y004505D02*
X025240Y004505D01*
X025240Y004346D02*
X028995Y004346D01*
X028995Y004188D02*
X025240Y004188D01*
X025207Y004029D02*
X028995Y004029D01*
X028995Y003871D02*
X024682Y003871D01*
X024570Y003712D02*
X028995Y003712D01*
X028995Y003554D02*
X024570Y003554D01*
X024741Y003395D02*
X028995Y003395D01*
X028995Y003237D02*
X024900Y003237D01*
X024945Y003078D02*
X028995Y003078D01*
X028995Y002920D02*
X025084Y002920D01*
X025185Y002761D02*
X028995Y002761D01*
X028995Y002603D02*
X025219Y002603D01*
X025219Y002444D02*
X028995Y002444D01*
X028995Y002286D02*
X025219Y002286D01*
X025219Y002127D02*
X028995Y002127D01*
X028995Y001969D02*
X028726Y001969D01*
X028885Y001810D02*
X028995Y001810D01*
X027724Y001969D02*
X025219Y001969D01*
X025219Y001810D02*
X027565Y001810D01*
X027449Y001652D02*
X025169Y001652D01*
X025046Y001493D02*
X027384Y001493D01*
X024725Y002225D02*
X024725Y003100D01*
X024600Y003225D01*
X024475Y003225D01*
X024350Y003350D01*
X024350Y003850D01*
X024600Y004100D01*
X024600Y004850D01*
X024350Y005100D01*
X024350Y005725D01*
X024225Y005850D01*
X025495Y006090D02*
X028995Y006090D01*
X028995Y006248D02*
X025495Y006248D01*
X025495Y006407D02*
X028995Y006407D01*
X028995Y006565D02*
X025495Y006565D01*
X025495Y006724D02*
X028995Y006724D01*
X028995Y006882D02*
X025495Y006882D01*
X025427Y007041D02*
X026270Y007041D01*
X027180Y007041D02*
X028995Y007041D01*
X028995Y007199D02*
X027180Y007199D01*
X027180Y007358D02*
X028995Y007358D01*
X028995Y007516D02*
X027180Y007516D01*
X027151Y007675D02*
X028995Y007675D01*
X028995Y007833D02*
X027218Y007833D01*
X027220Y007992D02*
X028995Y007992D01*
X028995Y008150D02*
X026773Y008150D01*
X026773Y008167D02*
X027220Y008167D01*
X027220Y008398D01*
X027208Y008444D01*
X027184Y008485D01*
X027150Y008519D01*
X027109Y008542D01*
X027064Y008555D01*
X026773Y008555D01*
X026773Y008167D01*
X026677Y008150D02*
X020773Y008150D01*
X020773Y008309D02*
X020677Y008309D01*
X020677Y008467D02*
X020773Y008467D01*
X018980Y009418D02*
X018970Y009418D01*
X018480Y009418D02*
X018470Y009418D01*
X017980Y009418D02*
X017970Y009418D01*
X017480Y009418D02*
X017470Y009418D01*
X017035Y009577D02*
X000455Y009577D01*
X000455Y009735D02*
X016336Y009735D01*
X016211Y009894D02*
X014800Y009894D01*
X014800Y010052D02*
X016209Y010052D01*
X016285Y010211D02*
X014800Y010211D01*
X014800Y010369D02*
X016285Y010369D01*
X016285Y010528D02*
X014800Y010528D01*
X014800Y010686D02*
X016285Y010686D01*
X016285Y010845D02*
X014800Y010845D01*
X014800Y011003D02*
X016285Y011003D01*
X016285Y011162D02*
X014800Y011162D01*
X014800Y011320D02*
X016285Y011320D01*
X016285Y011479D02*
X014800Y011479D01*
X014800Y011637D02*
X016285Y011637D01*
X016285Y011796D02*
X014800Y011796D01*
X015587Y011954D02*
X016285Y011954D01*
X016285Y012113D02*
X015587Y012113D01*
X015586Y012271D02*
X016285Y012271D01*
X016285Y012430D02*
X015586Y012430D01*
X015585Y012588D02*
X016285Y012588D01*
X016285Y012747D02*
X015584Y012747D01*
X015584Y012905D02*
X016285Y012905D01*
X016285Y013064D02*
X015583Y013064D01*
X015583Y013222D02*
X016285Y013222D01*
X016285Y013381D02*
X015582Y013381D01*
X015970Y013539D02*
X016285Y013539D01*
X016285Y013698D02*
X016061Y013698D01*
X016065Y013856D02*
X016285Y013856D01*
X016285Y014015D02*
X016065Y014015D01*
X016065Y014173D02*
X016285Y014173D01*
X016285Y014332D02*
X016065Y014332D01*
X016065Y014490D02*
X016285Y014490D01*
X016285Y014649D02*
X016065Y014649D01*
X016065Y014807D02*
X016285Y014807D01*
X016285Y014966D02*
X016065Y014966D01*
X016065Y015124D02*
X016219Y015124D01*
X016201Y015283D02*
X016065Y015283D01*
X016065Y015441D02*
X016302Y015441D01*
X015385Y015441D02*
X000455Y015441D01*
X000455Y015283D02*
X015385Y015283D01*
X014928Y015600D02*
X014522Y015600D01*
X014474Y015552D02*
X014598Y015676D01*
X014665Y015837D01*
X014665Y016613D01*
X014598Y016774D01*
X014474Y016898D01*
X014313Y016965D01*
X014137Y016965D01*
X013976Y016898D01*
X013852Y016774D01*
X013785Y016613D01*
X013785Y015837D01*
X013852Y015676D01*
X013976Y015552D01*
X014137Y015485D01*
X014313Y015485D01*
X014474Y015552D01*
X014632Y015758D02*
X014818Y015758D01*
X014785Y015917D02*
X014665Y015917D01*
X014665Y016075D02*
X014785Y016075D01*
X014785Y016234D02*
X014665Y016234D01*
X014665Y016392D02*
X014785Y016392D01*
X014785Y016551D02*
X014665Y016551D01*
X014625Y016709D02*
X014825Y016709D01*
X014945Y016868D02*
X014505Y016868D01*
X013945Y016868D02*
X013505Y016868D01*
X013474Y016898D02*
X013313Y016965D01*
X013137Y016965D01*
X012976Y016898D01*
X012852Y016774D01*
X012785Y016613D01*
X012785Y015837D01*
X012852Y015676D01*
X012976Y015552D01*
X013137Y015485D01*
X013313Y015485D01*
X013474Y015552D01*
X013598Y015676D01*
X013665Y015837D01*
X013665Y016613D01*
X013598Y016774D01*
X013474Y016898D01*
X013625Y016709D02*
X013825Y016709D01*
X013785Y016551D02*
X013665Y016551D01*
X013665Y016392D02*
X013785Y016392D01*
X013785Y016234D02*
X013665Y016234D01*
X013665Y016075D02*
X013785Y016075D01*
X013785Y015917D02*
X013665Y015917D01*
X013632Y015758D02*
X013818Y015758D01*
X013928Y015600D02*
X013522Y015600D01*
X012928Y015600D02*
X012522Y015600D01*
X012474Y015552D02*
X012598Y015676D01*
X012665Y015837D01*
X012665Y016613D01*
X012598Y016774D01*
X012474Y016898D01*
X012313Y016965D01*
X012137Y016965D01*
X011976Y016898D01*
X011852Y016774D01*
X011785Y016613D01*
X011785Y015837D01*
X011852Y015676D01*
X011976Y015552D01*
X012137Y015485D01*
X012313Y015485D01*
X012474Y015552D01*
X012632Y015758D02*
X012818Y015758D01*
X012785Y015917D02*
X012665Y015917D01*
X012665Y016075D02*
X012785Y016075D01*
X012785Y016234D02*
X012665Y016234D01*
X012665Y016392D02*
X012785Y016392D01*
X012785Y016551D02*
X012665Y016551D01*
X012625Y016709D02*
X012825Y016709D01*
X012945Y016868D02*
X012505Y016868D01*
X011945Y016868D02*
X011561Y016868D01*
X011538Y016891D02*
X011477Y016936D01*
X011409Y016970D01*
X011337Y016993D01*
X011263Y017005D01*
X011245Y017005D01*
X011245Y016245D01*
X011705Y016245D01*
X011705Y016563D01*
X011693Y016637D01*
X011670Y016709D01*
X011825Y016709D01*
X011670Y016709D02*
X011636Y016777D01*
X011591Y016838D01*
X011538Y016891D01*
X011245Y016868D02*
X011205Y016868D01*
X011205Y017005D02*
X011187Y017005D01*
X011113Y016993D01*
X011041Y016970D01*
X010973Y016936D01*
X010912Y016891D01*
X010859Y016838D01*
X010814Y016777D01*
X010780Y016709D01*
X007625Y016709D01*
X007598Y016774D02*
X007474Y016898D01*
X007313Y016965D01*
X007137Y016965D01*
X006976Y016898D01*
X006852Y016774D01*
X006785Y016613D01*
X006785Y015837D01*
X006852Y015676D01*
X006976Y015552D01*
X007137Y015485D01*
X007313Y015485D01*
X007474Y015552D01*
X007598Y015676D01*
X007665Y015837D01*
X007665Y016613D01*
X007598Y016774D01*
X007505Y016868D02*
X010889Y016868D01*
X010780Y016709D02*
X010757Y016637D01*
X010745Y016563D01*
X010745Y016245D01*
X011205Y016245D01*
X011205Y017005D01*
X011205Y016709D02*
X011245Y016709D01*
X011245Y016551D02*
X011205Y016551D01*
X011205Y016392D02*
X011245Y016392D01*
X011245Y016245D02*
X011205Y016245D01*
X011205Y016205D01*
X011245Y016205D01*
X011245Y016245D01*
X011245Y016234D02*
X011785Y016234D01*
X011705Y016205D02*
X011245Y016205D01*
X011245Y015445D01*
X011263Y015445D01*
X011337Y015457D01*
X011409Y015480D01*
X011477Y015514D01*
X011538Y015559D01*
X011591Y015612D01*
X011636Y015673D01*
X011670Y015741D01*
X011693Y015813D01*
X011705Y015887D01*
X011705Y016205D01*
X011705Y016075D02*
X011785Y016075D01*
X011785Y015917D02*
X011705Y015917D01*
X011675Y015758D02*
X011818Y015758D01*
X011928Y015600D02*
X011578Y015600D01*
X011245Y015600D02*
X011205Y015600D01*
X011205Y015445D02*
X011187Y015445D01*
X011113Y015457D01*
X011041Y015480D01*
X010973Y015514D01*
X010912Y015559D01*
X010859Y015612D01*
X010814Y015673D01*
X010780Y015741D01*
X010757Y015813D01*
X010745Y015887D01*
X010745Y016205D01*
X011205Y016205D01*
X011205Y015445D01*
X011205Y015758D02*
X011245Y015758D01*
X011245Y015917D02*
X011205Y015917D01*
X011205Y016075D02*
X011245Y016075D01*
X011205Y016234D02*
X007665Y016234D01*
X007665Y016392D02*
X010745Y016392D01*
X010745Y016551D02*
X007665Y016551D01*
X007665Y016075D02*
X010745Y016075D01*
X010745Y015917D02*
X007665Y015917D01*
X007632Y015758D02*
X010775Y015758D01*
X010872Y015600D02*
X007522Y015600D01*
X006928Y015600D02*
X006522Y015600D01*
X006474Y015552D02*
X006598Y015676D01*
X006665Y015837D01*
X006665Y016613D01*
X006598Y016774D01*
X006474Y016898D01*
X006313Y016965D01*
X006137Y016965D01*
X005976Y016898D01*
X005852Y016774D01*
X005785Y016613D01*
X005785Y015837D01*
X005852Y015676D01*
X005976Y015552D01*
X006137Y015485D01*
X006313Y015485D01*
X006474Y015552D01*
X006632Y015758D02*
X006818Y015758D01*
X006785Y015917D02*
X006665Y015917D01*
X006665Y016075D02*
X006785Y016075D01*
X006785Y016234D02*
X006665Y016234D01*
X006665Y016392D02*
X006785Y016392D01*
X006785Y016551D02*
X006665Y016551D01*
X006625Y016709D02*
X006825Y016709D01*
X006945Y016868D02*
X006505Y016868D01*
X005945Y016868D02*
X005505Y016868D01*
X005474Y016898D02*
X005313Y016965D01*
X005137Y016965D01*
X004976Y016898D01*
X004852Y016774D01*
X004785Y016613D01*
X004785Y015837D01*
X004852Y015676D01*
X004976Y015552D01*
X005137Y015485D01*
X005313Y015485D01*
X005474Y015552D01*
X005598Y015676D01*
X005665Y015837D01*
X005665Y016613D01*
X005598Y016774D01*
X005474Y016898D01*
X005625Y016709D02*
X005825Y016709D01*
X005785Y016551D02*
X005665Y016551D01*
X005665Y016392D02*
X005785Y016392D01*
X005785Y016234D02*
X005665Y016234D01*
X005665Y016075D02*
X005785Y016075D01*
X005785Y015917D02*
X005665Y015917D01*
X005632Y015758D02*
X005818Y015758D01*
X005928Y015600D02*
X005522Y015600D01*
X004928Y015600D02*
X004522Y015600D01*
X004474Y015552D02*
X004598Y015676D01*
X004665Y015837D01*
X004665Y016613D01*
X004598Y016774D01*
X004474Y016898D01*
X004313Y016965D01*
X004137Y016965D01*
X003976Y016898D01*
X003852Y016774D01*
X003785Y016613D01*
X003785Y015837D01*
X003852Y015676D01*
X003976Y015552D01*
X004137Y015485D01*
X004313Y015485D01*
X004474Y015552D01*
X004632Y015758D02*
X004818Y015758D01*
X004785Y015917D02*
X004665Y015917D01*
X004665Y016075D02*
X004785Y016075D01*
X004785Y016234D02*
X004665Y016234D01*
X004665Y016392D02*
X004785Y016392D01*
X004785Y016551D02*
X004665Y016551D01*
X004625Y016709D02*
X004825Y016709D01*
X004945Y016868D02*
X004505Y016868D01*
X003945Y016868D02*
X003561Y016868D01*
X003538Y016891D02*
X003477Y016936D01*
X003409Y016970D01*
X003337Y016993D01*
X003263Y017005D01*
X003245Y017005D01*
X003245Y016245D01*
X003705Y016245D01*
X003705Y016563D01*
X003693Y016637D01*
X003670Y016709D01*
X003825Y016709D01*
X003670Y016709D02*
X003636Y016777D01*
X003591Y016838D01*
X003538Y016891D01*
X003245Y016868D02*
X003205Y016868D01*
X003205Y017005D02*
X003187Y017005D01*
X003113Y016993D01*
X003041Y016970D01*
X002973Y016936D01*
X002912Y016891D01*
X002859Y016838D01*
X002814Y016777D01*
X002780Y016709D01*
X000455Y016709D01*
X000455Y016551D02*
X002745Y016551D01*
X002745Y016563D02*
X002745Y016245D01*
X003205Y016245D01*
X003205Y017005D01*
X002889Y016868D02*
X000455Y016868D01*
X000455Y017026D02*
X017035Y017026D01*
X017035Y016868D02*
X015505Y016868D01*
X015625Y016709D02*
X017035Y016709D01*
X017035Y016551D02*
X015665Y016551D01*
X015665Y016392D02*
X017035Y016392D01*
X017035Y016234D02*
X015710Y016234D01*
X017035Y017185D02*
X000455Y017185D01*
X000455Y017343D02*
X017035Y017343D01*
X017035Y017502D02*
X000455Y017502D01*
X000455Y017660D02*
X017035Y017660D01*
X017035Y017819D02*
X000455Y017819D01*
X000455Y017977D02*
X000731Y017977D01*
X000570Y018136D02*
X000455Y018136D01*
X001719Y017977D02*
X017035Y017977D01*
X017035Y018136D02*
X001880Y018136D01*
X001999Y018294D02*
X017035Y018294D01*
X017035Y018453D02*
X002065Y018453D01*
X002105Y018611D02*
X016975Y018611D01*
X016950Y018770D02*
X002105Y018770D01*
X002093Y018928D02*
X017039Y018928D01*
X017411Y018928D02*
X027357Y018928D01*
X027345Y018770D02*
X017500Y018770D01*
X017475Y018611D02*
X027345Y018611D01*
X027385Y018453D02*
X017415Y018453D01*
X017415Y018294D02*
X027451Y018294D01*
X027570Y018136D02*
X017415Y018136D01*
X017415Y017977D02*
X027731Y017977D01*
X028719Y017977D02*
X028995Y017977D01*
X028995Y017819D02*
X017415Y017819D01*
X017415Y017660D02*
X028995Y017660D01*
X028995Y017502D02*
X017415Y017502D01*
X017415Y017343D02*
X028995Y017343D01*
X028995Y017185D02*
X017415Y017185D01*
X011785Y016551D02*
X011705Y016551D01*
X011705Y016392D02*
X011785Y016392D01*
X007450Y015124D02*
X000455Y015124D01*
X000455Y014966D02*
X007450Y014966D01*
X007450Y014807D02*
X000455Y014807D01*
X000455Y014649D02*
X000601Y014649D01*
X001849Y014649D02*
X007450Y014649D01*
X007450Y014490D02*
X002005Y014490D01*
X002070Y014332D02*
X007450Y014332D01*
X006150Y014173D02*
X002074Y014173D01*
X002027Y014015D02*
X006150Y014015D01*
X006150Y013856D02*
X001909Y013856D01*
X001829Y013698D02*
X006150Y013698D01*
X006150Y013539D02*
X002012Y013539D01*
X002091Y013381D02*
X006150Y013381D01*
X006150Y013222D02*
X001263Y013222D01*
X001263Y013064D02*
X001187Y013064D01*
X001187Y012905D02*
X001263Y012905D01*
X001263Y012747D02*
X001187Y012747D01*
X000633Y012747D02*
X000455Y012747D01*
X000455Y012588D02*
X006150Y012588D01*
X006150Y012430D02*
X000455Y012430D01*
X000455Y012271D02*
X006150Y012271D01*
X006150Y012113D02*
X000455Y012113D01*
X000455Y011954D02*
X006150Y011954D01*
X006150Y011796D02*
X000455Y011796D01*
X000455Y011637D02*
X006150Y011637D01*
X006150Y011479D02*
X000455Y011479D01*
X000455Y011320D02*
X006150Y011320D01*
X006150Y011162D02*
X000455Y011162D01*
X000455Y011003D02*
X006150Y011003D01*
X006150Y010845D02*
X000455Y010845D01*
X000455Y010686D02*
X006150Y010686D01*
X006150Y010528D02*
X000455Y010528D01*
X000455Y010369D02*
X006150Y010369D01*
X006150Y010211D02*
X000455Y010211D01*
X000455Y010052D02*
X006150Y010052D01*
X006150Y009894D02*
X000455Y009894D01*
X000455Y009418D02*
X003935Y009418D01*
X003927Y009404D02*
X003915Y009359D01*
X003915Y008935D01*
X004225Y008935D01*
X004225Y008935D01*
X004225Y008935D01*
X004225Y009515D01*
X004071Y009515D01*
X004026Y009503D01*
X003984Y009479D01*
X003951Y009446D01*
X003927Y009404D01*
X003915Y009260D02*
X000455Y009260D01*
X000455Y009101D02*
X003915Y009101D01*
X003915Y008943D02*
X000455Y008943D01*
X000455Y008784D02*
X003915Y008784D01*
X003915Y008935D02*
X003915Y008511D01*
X003927Y008466D01*
X003951Y008424D01*
X003984Y008391D01*
X004026Y008367D01*
X004071Y008355D01*
X004225Y008355D01*
X004379Y008355D01*
X004424Y008367D01*
X004466Y008391D01*
X004475Y008400D01*
X004484Y008391D01*
X004526Y008367D01*
X004571Y008355D01*
X004725Y008355D01*
X004725Y008935D01*
X004725Y008935D01*
X004725Y008935D01*
X004225Y008935D01*
X004225Y008355D01*
X004225Y008935D01*
X004225Y008935D01*
X003915Y008935D01*
X003915Y008626D02*
X000455Y008626D01*
X000455Y008467D02*
X003927Y008467D01*
X004225Y008467D02*
X004225Y008467D01*
X004225Y008626D02*
X004225Y008626D01*
X004225Y008784D02*
X004225Y008784D01*
X004225Y008943D02*
X004225Y008943D01*
X004225Y009101D02*
X004225Y009101D01*
X004225Y009260D02*
X004225Y009260D01*
X004225Y009418D02*
X004225Y009418D01*
X004725Y009418D02*
X004725Y009418D01*
X004725Y009260D02*
X004725Y009260D01*
X004725Y009101D02*
X004725Y009101D01*
X004725Y008943D02*
X004725Y008943D01*
X004725Y008784D02*
X004725Y008784D01*
X004725Y008626D02*
X004725Y008626D01*
X004725Y008467D02*
X004725Y008467D01*
X005123Y008309D02*
X000455Y008309D01*
X000455Y007516D02*
X002002Y007516D01*
X001992Y007506D02*
X001950Y007405D01*
X001950Y007295D01*
X001992Y007194D01*
X002035Y007151D01*
X002035Y007015D01*
X001931Y007015D01*
X001849Y006933D01*
X001849Y006344D01*
X001931Y006262D01*
X002519Y006262D01*
X002601Y006344D01*
X002601Y006933D01*
X002519Y007015D01*
X002415Y007015D01*
X002415Y007151D01*
X002458Y007194D01*
X002500Y007295D01*
X002500Y007405D01*
X002458Y007506D01*
X002381Y007583D01*
X002280Y007625D01*
X002170Y007625D01*
X002069Y007583D01*
X001992Y007506D01*
X001950Y007358D02*
X000455Y007358D01*
X000455Y007199D02*
X001990Y007199D01*
X002035Y007041D02*
X000455Y007041D01*
X000455Y006882D02*
X001849Y006882D01*
X001849Y006724D02*
X000455Y006724D01*
X000455Y006565D02*
X001849Y006565D01*
X001849Y006407D02*
X000455Y006407D01*
X002415Y007041D02*
X004023Y007041D01*
X003955Y006882D02*
X002601Y006882D01*
X002601Y006724D02*
X003955Y006724D01*
X003955Y006565D02*
X002601Y006565D01*
X002601Y006407D02*
X003955Y006407D01*
X004725Y006475D02*
X004725Y005725D01*
X004880Y005456D02*
X005070Y005456D01*
X005380Y005456D02*
X005933Y005456D01*
X006100Y005600D02*
X007975Y005600D01*
X008225Y005350D01*
X009225Y005350D01*
X009350Y005225D01*
X009225Y006100D02*
X008225Y006100D01*
X007975Y005850D01*
X006350Y005850D01*
X006225Y005975D01*
X006225Y006475D01*
X005725Y006475D02*
X005725Y005975D01*
X006100Y005600D01*
X005775Y005614D02*
X005513Y005614D01*
X005533Y005773D02*
X005616Y005773D01*
X005505Y005931D02*
X005455Y005931D01*
X005225Y005725D02*
X005225Y006475D01*
X005023Y007041D02*
X004927Y007041D01*
X004523Y007041D02*
X004427Y007041D01*
X005427Y007041D02*
X005523Y007041D01*
X005927Y007041D02*
X006023Y007041D01*
X006427Y007041D02*
X006523Y007041D01*
X006927Y007041D02*
X007023Y007041D01*
X007035Y007199D02*
X002460Y007199D01*
X002500Y007358D02*
X007089Y007358D01*
X007247Y007516D02*
X002448Y007516D01*
X005470Y009418D02*
X005480Y009418D01*
X005970Y009418D02*
X005980Y009418D01*
X006470Y009418D02*
X006480Y009418D01*
X006970Y009418D02*
X006980Y009418D01*
X007495Y009101D02*
X007730Y009101D01*
X007700Y008943D02*
X007495Y008943D01*
X007495Y008784D02*
X007777Y008784D01*
X007732Y008626D02*
X007495Y008626D01*
X007952Y008309D02*
X008230Y008309D01*
X008256Y008467D02*
X008111Y008467D01*
X008296Y006724D02*
X007495Y006724D01*
X007495Y006565D02*
X008230Y006565D01*
X008230Y006407D02*
X007495Y006407D01*
X007495Y006248D02*
X008062Y006248D01*
X007903Y006090D02*
X007495Y006090D01*
X007627Y003074D02*
X007445Y002998D01*
X007306Y002859D01*
X007231Y002678D01*
X007231Y001772D01*
X007306Y001591D01*
X007445Y001452D01*
X007627Y001376D01*
X007823Y001376D01*
X008005Y001452D01*
X008144Y001591D01*
X008219Y001772D01*
X008219Y002678D01*
X008144Y002859D01*
X008005Y002998D01*
X007823Y003074D01*
X007627Y003074D01*
X007366Y002920D02*
X007084Y002920D01*
X007144Y002859D02*
X007005Y002998D01*
X006823Y003074D01*
X006627Y003074D01*
X006445Y002998D01*
X006306Y002859D01*
X006231Y002678D01*
X006231Y001772D01*
X006306Y001591D01*
X006445Y001452D01*
X006627Y001376D01*
X006823Y001376D01*
X007005Y001452D01*
X007144Y001591D01*
X007219Y001772D01*
X007219Y002678D01*
X007144Y002859D01*
X007185Y002761D02*
X007265Y002761D01*
X007231Y002603D02*
X007219Y002603D01*
X007219Y002444D02*
X007231Y002444D01*
X007219Y002286D02*
X007231Y002286D01*
X007219Y002127D02*
X007231Y002127D01*
X007219Y001969D02*
X007231Y001969D01*
X007219Y001810D02*
X007231Y001810D01*
X007281Y001652D02*
X007169Y001652D01*
X007046Y001493D02*
X007404Y001493D01*
X008046Y001493D02*
X008404Y001493D01*
X008445Y001452D02*
X008627Y001376D01*
X008823Y001376D01*
X009005Y001452D01*
X009144Y001591D01*
X009219Y001772D01*
X009219Y002678D01*
X009144Y002859D01*
X009005Y002998D01*
X008823Y003074D01*
X008627Y003074D01*
X008445Y002998D01*
X008306Y002859D01*
X008231Y002678D01*
X008231Y001772D01*
X008306Y001591D01*
X008445Y001452D01*
X008281Y001652D02*
X008169Y001652D01*
X008219Y001810D02*
X008231Y001810D01*
X008219Y001969D02*
X008231Y001969D01*
X008219Y002127D02*
X008231Y002127D01*
X008219Y002286D02*
X008231Y002286D01*
X008219Y002444D02*
X008231Y002444D01*
X008219Y002603D02*
X008231Y002603D01*
X008265Y002761D02*
X008185Y002761D01*
X008084Y002920D02*
X008366Y002920D01*
X009084Y002920D02*
X009366Y002920D01*
X009265Y002761D02*
X009185Y002761D01*
X009219Y002603D02*
X009231Y002603D01*
X009219Y002444D02*
X009231Y002444D01*
X009219Y002286D02*
X009231Y002286D01*
X009219Y002127D02*
X009231Y002127D01*
X009219Y001969D02*
X009231Y001969D01*
X009219Y001810D02*
X009231Y001810D01*
X009281Y001652D02*
X009169Y001652D01*
X009046Y001493D02*
X009404Y001493D01*
X010046Y001493D02*
X010404Y001493D01*
X010281Y001652D02*
X010169Y001652D01*
X010219Y001810D02*
X010231Y001810D01*
X010219Y001969D02*
X010231Y001969D01*
X010219Y002127D02*
X010231Y002127D01*
X010219Y002286D02*
X010231Y002286D01*
X010219Y002444D02*
X010231Y002444D01*
X010219Y002603D02*
X010231Y002603D01*
X010265Y002761D02*
X010185Y002761D01*
X010084Y002920D02*
X010366Y002920D01*
X011084Y002920D02*
X011366Y002920D01*
X011265Y002761D02*
X011185Y002761D01*
X011219Y002603D02*
X011231Y002603D01*
X011219Y002444D02*
X011231Y002444D01*
X011219Y002286D02*
X011231Y002286D01*
X011219Y002127D02*
X011231Y002127D01*
X011219Y001969D02*
X011231Y001969D01*
X011219Y001810D02*
X011231Y001810D01*
X011281Y001652D02*
X011169Y001652D01*
X011046Y001493D02*
X011404Y001493D01*
X006404Y001493D02*
X006046Y001493D01*
X006169Y001652D02*
X006281Y001652D01*
X006231Y001810D02*
X006219Y001810D01*
X006219Y001969D02*
X006231Y001969D01*
X006219Y002127D02*
X006231Y002127D01*
X006219Y002286D02*
X006231Y002286D01*
X006219Y002444D02*
X006231Y002444D01*
X006219Y002603D02*
X006231Y002603D01*
X006265Y002761D02*
X006185Y002761D01*
X006084Y002920D02*
X006366Y002920D01*
X005366Y002920D02*
X005138Y002920D01*
X005228Y002761D02*
X005265Y002761D01*
X004763Y002761D02*
X004687Y002761D01*
X004687Y002603D02*
X004763Y002603D01*
X004763Y002444D02*
X004687Y002444D01*
X004687Y002286D02*
X004763Y002286D01*
X004763Y002127D02*
X004687Y002127D01*
X004687Y001969D02*
X004763Y001969D01*
X004763Y001810D02*
X004687Y001810D01*
X004687Y001652D02*
X004763Y001652D01*
X004763Y001493D02*
X004687Y001493D01*
X005103Y001493D02*
X005404Y001493D01*
X005281Y001652D02*
X005213Y001652D01*
X004763Y002920D02*
X004687Y002920D01*
X002273Y003554D02*
X002177Y003554D01*
X002177Y003712D02*
X002273Y003712D01*
X001750Y003712D02*
X000455Y003712D01*
X000455Y003554D02*
X001755Y003554D01*
X000565Y001810D02*
X000455Y001810D01*
X001817Y012747D02*
X006150Y012747D01*
X006150Y012905D02*
X002007Y012905D01*
X002089Y013064D02*
X006150Y013064D01*
X003591Y015612D02*
X003538Y015559D01*
X003477Y015514D01*
X003409Y015480D01*
X003337Y015457D01*
X003263Y015445D01*
X003245Y015445D01*
X003245Y016205D01*
X003245Y016245D01*
X003205Y016245D01*
X003205Y016205D01*
X003245Y016205D01*
X003705Y016205D01*
X003705Y015887D01*
X003693Y015813D01*
X003670Y015741D01*
X003636Y015673D01*
X003591Y015612D01*
X003578Y015600D02*
X003928Y015600D01*
X003818Y015758D02*
X003675Y015758D01*
X003705Y015917D02*
X003785Y015917D01*
X003785Y016075D02*
X003705Y016075D01*
X003785Y016234D02*
X003245Y016234D01*
X003205Y016234D02*
X000455Y016234D01*
X000455Y016392D02*
X002745Y016392D01*
X002745Y016563D02*
X002757Y016637D01*
X002780Y016709D01*
X003205Y016709D02*
X003245Y016709D01*
X003245Y016551D02*
X003205Y016551D01*
X003205Y016392D02*
X003245Y016392D01*
X003205Y016205D02*
X002745Y016205D01*
X002745Y015887D01*
X002757Y015813D01*
X002780Y015741D01*
X002814Y015673D01*
X002859Y015612D01*
X002912Y015559D01*
X002973Y015514D01*
X003041Y015480D01*
X003113Y015457D01*
X003187Y015445D01*
X003205Y015445D01*
X003205Y016205D01*
X003205Y016075D02*
X003245Y016075D01*
X003245Y015917D02*
X003205Y015917D01*
X003205Y015758D02*
X003245Y015758D01*
X003245Y015600D02*
X003205Y015600D01*
X002872Y015600D02*
X000455Y015600D01*
X000455Y015758D02*
X002775Y015758D01*
X002745Y015917D02*
X000455Y015917D01*
X000455Y016075D02*
X002745Y016075D01*
X003705Y016392D02*
X003785Y016392D01*
X003785Y016551D02*
X003705Y016551D01*
X002028Y019087D02*
X027422Y019087D01*
X027501Y019245D02*
X001949Y019245D01*
X001791Y019404D02*
X027659Y019404D01*
X028880Y018136D02*
X028995Y018136D01*
X028958Y012905D02*
X028995Y012905D01*
X028995Y012747D02*
X028716Y012747D01*
X028995Y009418D02*
X025470Y009418D01*
X025495Y009260D02*
X028995Y009260D01*
X028995Y009101D02*
X025495Y009101D01*
X025495Y008943D02*
X028995Y008943D01*
X028995Y008784D02*
X025495Y008784D01*
X025495Y008626D02*
X028995Y008626D01*
X028995Y008467D02*
X027194Y008467D01*
X027220Y008309D02*
X028995Y008309D01*
X026773Y008309D02*
X026677Y008309D01*
X026677Y008467D02*
X026773Y008467D01*
X026256Y008467D02*
X025485Y008467D01*
X023210Y004346D02*
X022570Y004346D01*
X022570Y004188D02*
X023210Y004188D01*
X023243Y004029D02*
X022570Y004029D01*
X022570Y003871D02*
X023768Y003871D01*
X023880Y003712D02*
X022570Y003712D01*
X022570Y003554D02*
X023880Y003554D01*
X023709Y003395D02*
X022741Y003395D01*
X022816Y003320D02*
X022816Y003320D01*
X021709Y003395D02*
X020741Y003395D01*
X023219Y002127D02*
X023231Y002127D01*
X023219Y001969D02*
X023231Y001969D01*
X023219Y001810D02*
X023231Y001810D01*
X023281Y001652D02*
X023169Y001652D01*
X023046Y001493D02*
X023404Y001493D01*
X024046Y001493D02*
X024404Y001493D01*
X024281Y001652D02*
X024169Y001652D01*
X024219Y001810D02*
X024231Y001810D01*
X024219Y001969D02*
X024231Y001969D01*
X024219Y002127D02*
X024231Y002127D01*
D34*
X023225Y005725D03*
X022725Y005725D03*
X017225Y005725D03*
X016725Y005725D03*
X011225Y005725D03*
X010725Y005725D03*
X005225Y005725D03*
X004725Y005725D03*
X006713Y013725D03*
X007225Y013725D03*
M02*
